<?xml version="1.0"?>
<svg xmlns="http://www.w3.org/2000/svg" id="Capa_1" enable-background="new 0 0 510 510" height="512px" viewBox="0 0 510 510" width="512px"><g><path d="m0 170.58v46.19c0 3.81 1.45 7.48 4.05 10.26l27.62 29.5c3 3.21 4.45 7.58 3.95 11.95l-16.95 148.4c-1.33 11.56 7.7 21.68 19.35 21.68h81.71c9.9 0 18.21-7.42 19.34-17.25l8.41-73.07h70.29c33.55 0 62.32-25.03 66.98-58.25 12.07-77.78 4.93-31.84 10.68-68.87h165.51c8.82 0 16.16-6.61 17.08-15.38l3.7-35.16zm114.22 70.19-17.22 141.73c-1.02 8.36-8.71 14.11-16.71 13.07-8.23-1-14.08-8.48-13.07-16.71l17.22-141.73c1-8.22 8.49-14.07 16.71-13.07s14.07 8.48 13.07 16.71zm140.83 44.99c-2.56 18.52-18.59 32.48-37.28 32.48h-66.84l6.73-58.5c.59-5.11 2.04-9.92 4.2-14.3 16.42 18.3 5.46 6.07 31.46 35.07 5.51 6.16 15 6.7 21.18 1.15 6.17-5.53 6.68-15.01 1.15-21.18-13.3-14.84-18.97-21.16-32.06-35.75 5.34-2.33 11.23-3.61 17.39-3.61h64.09c-.16 1.04-9.92 63.84-10.02 64.64z" data-original="#000000" class="active-path" data-old_color="#000000" fill="#E2385E"/><path d="m18.75 71.44c-10.355 0-18.75 8.395-18.75 18.75v50.39h500c5.523 0 10-4.477 10-10v-49.14c0-5.523-4.477-10-10-10z" data-original="#000000" class="active-path" data-old_color="#000000" fill="#E2385E"/></g> </svg>
