<svg height="477pt" viewBox="-26 0 477 477.96064" width="477pt" xmlns="http://www.w3.org/2000/svg">
   <path fill="" d="m335.769531 235.914062v-127.589843c0-2.78125-1.15625-5.433594-3.191406-7.324219l-105.84375-98.324219c-1.847656-1.71875-4.28125-2.675781-6.804687-2.675781h-175.449219c-24.289063.0273438-43.972657 19.710938-44 44v335.792969c.027343 24.289062 19.710937 43.972656 44 44h155.382812c30.578125 45.125 87.140625 64.835937 139.140625 48.488281s87.109375-64.882812 86.363282-119.386719c-.746094-54.503906-37.167969-102.0625-89.597657-116.980469zm-105.097656-202.285156 70.976563 65.9375h-46.976563c-13.246094-.015625-23.984375-10.753906-24-24zm-186.191406 370.164063c-13.25-.015625-23.984375-10.753907-24-24v-335.792969c.015625-13.25 10.75-23.984375 24-24h166.191406v55.566406c.027344 24.289063 19.710937 43.972656 44 44h61.101563v112.417969c-34.90625-3.925781-69.832032 7.210937-96.023438 30.621094-26.191406 23.410156-41.160156 56.875-41.15625 92-.015625 16.925781 3.46875 33.671875 10.234375 49.1875zm257.503906 54.207031c-57.101563 0-103.394531-46.292969-103.394531-103.394531 0-57.101563 46.292968-103.394531 103.394531-103.394531 57.105469 0 103.394531 46.292968 103.394531 103.394531-.0625 57.078125-46.316406 103.328125-103.394531 103.394531zm0 0"/>
   <path fill="" d="m354.488281 342.945312h-40.84375v-40.84375c0-5.523437-4.476562-10-10-10-5.523437 0-10 4.476563-10 10v40.84375h-40.84375c-5.523437 0-10 4.476563-10 10 0 5.523438 4.476563 10 10 10h40.84375v46.375c0 5.523438 4.476563 10 10 10 5.523438 0 10-4.476562 10-10v-46.375h40.84375c5.523438 0 10-4.476562 10-10 0-5.519531-4.476562-10-10-10zm0 0"/>
</svg>