<svg xmlns="http://www.w3.org/2000/svg" width="30" height="30" viewBox="0 0 36.469 29.048">
  <g id="Advance_Amount" data-name="Advance Amount" transform="translate(-2909 2009)">
    <g id="noun_Document_3370380" transform="translate(2909 -2009)">
      <g id="Layer_2" data-name="Layer 2" transform="translate(0 0)">
        <path id="Path_290" data-name="Path 290" d="M26.137,8.746H18.982a.426.426,0,0,1-.426-.426V1.165A.155.155,0,0,0,18.391,1H5.968A.968.968,0,0,0,5,1.968V29.079a.968.968,0,0,0,.968.968H25.333a.968.968,0,0,0,.968-.968V8.911a.155.155,0,0,0-.165-.165ZM9.841,4.873h3.873a.968.968,0,1,1,0,1.936H9.841a.968.968,0,1,1,0-1.936ZM8.873,19.4a.968.968,0,0,1,.968-.968h9.682a.968.968,0,1,1,0,1.936H9.841A.968.968,0,0,1,8.873,19.4ZM21.46,26.174H15.651a.968.968,0,1,1,0-1.936H21.46a.968.968,0,0,1,0,1.936Zm0-9.682H9.841a.968.968,0,1,1,0-1.936H21.46a.968.968,0,0,1,0,1.936Zm0-3.873H9.841a.968.968,0,1,1,0-1.936H21.46a.968.968,0,0,1,0,1.936Z" transform="translate(-5 -1)" fill="#01ffc3"/>
        <path id="Path_291" data-name="Path 291" d="M26.587,6.813H21.1a.087.087,0,0,1-.1-.1V1.227a.087.087,0,0,1,.155-.068l5.5,5.5a.087.087,0,0,1-.068.155Z" transform="translate(-5.508 -1.004)" fill="#01ffc3"/>
      </g>
    </g>
    <g id="noun_cash_3086969" transform="matrix(0.998, 0.07, -0.07, 0.998, 2931.776, -1996.272)">
      <g id="Group_2371" data-name="Group 2371" transform="translate(0 0)">
        <path id="Path_293" data-name="Path 293" d="M1.353.046.606,0a.1.1,0,0,0-.094.15A1.184,1.184,0,0,1,.653.761L.1,14.29a1.177,1.177,0,0,1-.1.426.075.075,0,0,0,.066.1l.381.023a.642.642,0,0,0,.68-.6L1.955.726A.642.642,0,0,0,1.353.046Z" transform="translate(11.78 0.151)" fill="#01ffc3"/>
        <path id="Path_294" data-name="Path 294" d="M.825.006.1,0A.1.1,0,0,0,.009.143a1.18,1.18,0,0,1,.1.439L.5,14.115a1.18,1.18,0,0,1-.145.6.075.075,0,0,0,.066.11l.281,0a.642.642,0,0,0,.647-.637L1.462.653A.642.642,0,0,0,.825.006Z" transform="translate(9.734 0.12)" fill="#01ffc3"/>
        <path id="Path_295" data-name="Path 295" d="M8.03,0,.6.47a.642.642,0,0,0-.6.681L.854,14.664a.642.642,0,0,0,.681.6L8.964,14.8a.642.642,0,0,0,.6-.681L8.712.6A.642.642,0,0,0,8.03,0ZM6.5,13.664l-2.672.169A2.471,2.471,0,0,0,1.985,12.2L1.433,3.449A2.471,2.471,0,0,0,3.061,1.6l2.672-.169A2.471,2.471,0,0,0,7.58,3.061l.552,8.756A2.471,2.471,0,0,0,6.5,13.664Z" fill="#01ffc3"/>
        <circle id="Ellipse_61" data-name="Ellipse 61" cx="1.854" cy="1.854" r="1.854" transform="translate(2.167 7.798) rotate(-48.609)" fill="#01ffc3"/>
      </g>
    </g>
  </g>
</svg>
