<?xml version="1.0"?>
<svg xmlns="http://www.w3.org/2000/svg" xmlns:xlink="http://www.w3.org/1999/xlink" version="1.1" id="Capa_1" x="0px" y="0px" viewBox="0 0 469.333 469.333" style="enable-background:new 0 0 469.333 469.333;" xml:space="preserve" width="512px" height="512px"><g><g>
	<g>
		<rect x="170.667" y="426.667" width="128" height="42.667" data-original="#000000" class="active-path" data-old_color="#000000" fill="#FFFFFF"/>
	</g>
</g><g>
	<g>
		<path d="M384,270.293l-26.24-126.72C347.459,92.772,307.067,53.481,256,44.587V0h-42.667v44.587    c-51.067,8.894-91.459,48.185-101.76,98.987l-26.24,126.72L29.44,384h410.453L384,270.293z M149.333,151.893    c9.339-40.076,44.223-69.029,85.333-70.827c41.111,1.797,75.994,30.751,85.333,70.827L341.333,256H128L149.333,151.893z     M94.293,341.333l21.333-42.667h238.08l21.333,42.667H94.293z" data-original="#000000" class="active-path" data-old_color="#000000" fill="#FFFFFF"/>
	</g>
</g></g> </svg>
