<?xml version="1.0"?>
<svg xmlns="http://www.w3.org/2000/svg" viewBox="-29 0 512 512" width="512px" height="512px"><g><path d="m454.117188 348.476562-6.113282-4.496093c-34.050781-25.042969-54.378906-65.234375-54.378906-107.503907v-69.910156c-.003906-91.84375-74.722656-166.566406-166.566406-166.566406s-166.566406 74.722656-166.566406 166.566406v69.910156c0 42.269532-20.328126 82.457032-54.378907 107.503907l-6.113281 4.496093v98.863282h161.28125c.613281 35.757812 29.875 64.660156 65.777344 64.660156s65.160156-28.902344 65.777344-64.660156h161.28125zm-363.625-112v-69.910156c0-75.304687 61.265624-136.566406 136.566406-136.566406 75.300781 0 136.5625 61.261719 136.5625 136.566406v69.910156c0 38.453126 13.738281 75.503907 37.898437 104.585938h-348.921875c24.15625-29.082031 37.894532-66.132812 37.894532-104.585938zm136.566406 245.523438c-19.363282 0-35.183594-15.445312-35.789063-34.660156h71.574219c-.601562 19.214844-16.425781 34.660156-35.785156 34.660156zm-197.058594-64.660156v-46.273438h394.117188v46.273438zm0 0" data-original="#000000" class="active-path" data-old_color="#000000" fill="#FFFFFF"/></g> </svg>
