<svg xmlns="http://www.w3.org/2000/svg" width="30" height="30" viewBox="0 0 23.282 37.786">
  <g id="Amount_Due" data-name="Amount Due" transform="translate(-2956.269 2191)">
    <path id="Path_250" data-name="Path 250" d="M21.642,74.734c5.175.253,9.4-.312,9.429-.974l-.2,4.094c-.032.663-4.487,1.693-9.663,1.44s-8.878-1-8.846-1.658l-.032-4.559C12.3,73.738,16.466,74.48,21.642,74.734Z" transform="translate(2944.43 -2232.546)" fill="#00e6bf"/>
    <path id="Path_251" data-name="Path 251" d="M14.041,63.911v-4.1c0,.663,4.2,1.2,9.382,1.2s9.382-.538,9.382-1.2v4.1c0,.663-4.2,1.2-9.382,1.2S14.041,64.574,14.041,63.911Z" transform="translate(2946.746 -2225.415)" fill="#00e6bf"/>
    <path id="Path_252" data-name="Path 252" d="M20.651,47.158c5.181,0,9.382-.537,9.382-1.2v4.1c0,.663-4.2,1.2-9.382,1.2s-9.382-.538-9.382-1.2v-4.1C11.269,46.62,15.469,47.158,20.651,47.158Z" transform="translate(2945 -2217.966)" fill="#00e6bf"/>
    <path id="Path_255" data-name="Path 255" d="M18.561,4.04h-2.08V3h-1.04V4.04H9.2V3H8.16V4.04H6.08A2.08,2.08,0,0,0,4,6.12V18.6a2.08,2.08,0,0,0,2.08,2.08H18.561a2.08,2.08,0,0,0,2.08-2.08V6.12A2.08,2.08,0,0,0,18.561,4.04ZM12.32,17.561a5.2,5.2,0,1,1,5.2-5.2A5.2,5.2,0,0,1,12.32,17.561Zm3.12-5.2V13.4H11.8V9.24h1.04v3.12Z" transform="translate(2953.532 -2194)" fill="#00e6bf"/>
  </g>
</svg>
