<?xml version="1.0"?>
<svg xmlns="http://www.w3.org/2000/svg" height="512px" viewBox="0 0 512 512" width="512px"><g><path d="m225.832031 0h60.335938v42.265625h-60.335938zm0 0" data-original="#000000" class="active-path" data-old_color="#000000" fill="#424856"/><path d="m375.902344 216.800781h-239.808594c2.777344 13.785157 14.980469 24.199219 29.574219 24.199219h180.667969c14.589843 0 26.792968-10.414062 29.566406-24.199219zm0 0" data-original="#000000" class="active-path" data-old_color="#000000" fill="#424856"/><path d="m361.335938 271h60.332031v42.265625h-60.332031zm0 0" data-original="#000000" class="active-path" data-old_color="#000000" fill="#424856"/><path d="m90.332031 271h60.335938v42.265625h-60.335938zm0 0" data-original="#000000" class="active-path" data-old_color="#000000" fill="#424856"/><path d="m376.5 30.167969c0-16.636719-13.53125-30.167969-30.164062-30.167969h-30.167969v57.265625c0 8.285156-6.71875 15-15 15h-90.335938c-8.285156 0-15-6.714844-15-15v-57.265625h-30.164062c-16.636719 0-30.167969 13.53125-30.167969 30.167969v156.632812h241zm0 0" data-original="#000000" class="active-path" data-old_color="#000000" fill="#424856"/><path d="m30.167969 512h180.664062c14.59375 0 26.796875-10.414062 29.570313-24.199219h-239.808594c2.777344 13.785157 14.980469 24.199219 29.574219 24.199219zm0 0" data-original="#000000" class="active-path" data-old_color="#000000" fill="#424856"/><path d="m481.835938 271h-30.167969v57.265625c0 8.285156-6.71875 15-15 15h-90.332031c-8.285157 0-15-6.714844-15-15v-57.265625h-30.167969c-16.636719 0-30.167969 13.53125-30.167969 30.167969v156.632812h241v-156.632812c0-16.636719-13.53125-30.167969-30.164062-30.167969zm0 0" data-original="#000000" class="active-path" data-old_color="#000000" fill="#424856"/><path d="m301.167969 512h180.667969c14.589843 0 26.792968-10.414062 29.566406-24.199219h-239.804688c2.773438 13.785157 14.976563 24.199219 29.570313 24.199219zm0 0" data-original="#000000" class="active-path" data-old_color="#000000" fill="#424856"/><path d="m210.832031 271h-30.164062v57.265625c0 8.285156-6.71875 15-15 15h-90.335938c-8.28125 0-15-6.714844-15-15v-57.265625h-30.164062c-16.636719 0-30.167969 13.53125-30.167969 30.167969v156.632812h241v-156.632812c0-16.636719-13.53125-30.167969-30.167969-30.167969zm0 0" data-original="#000000" class="active-path" data-old_color="#000000" fill="#424856"/></g> </svg>
