<?xml version="1.0"?>
<svg xmlns="http://www.w3.org/2000/svg" height="512px" viewBox="0 -35 492.00092 492" width="512px"><g><path d="m48.152344 334h219.660156c1.707031 4.0625 3.671875 8.011719 5.890625 11.820312l-13.621094 16.539063c-2.308593 2.804687-2.117187 6.902344.445313 9.480469l25.125 25.101562c2.550781 2.554688 6.628906 2.75 9.414062.449219l16.472656-13.648437c7.9375 4.660156 16.453126 8.253906 25.328126 10.6875l2.074218 21.320312c.355469 3.574219 3.375 6.285156 6.964844 6.25h35.601562c3.589844.035156 6.613282-2.675781 6.96875-6.246094l2.070313-21.355468c8.902344-2.375 17.433594-5.953126 25.367187-10.636719l16.433594 13.640625c2.777344 2.304687 6.855469 2.117187 9.410156-.433594l25.128907-25.066406c2.558593-2.554688 2.75-6.640625.441406-9.421875l-13.644531-16.457031c4.65625-7.929688 8.25-16.4375 10.691406-25.300782l21.242188-2.070312c3.597656-.347656 6.351562-3.355469 6.382812-6.96875v-35.542969c.058594-3.582031-2.636719-6.609375-6.199219-6.96875l-11.800781-1.15625v-220.144531c0-26.480469-21.929688-47.871094-48.410156-47.871094h-377.4375c-26.503906-.0507812-48.050782 21.367188-48.152344 47.871094v238.566406c0 26.480469 21.671875 47.5625 48.152344 47.5625zm429.847656-28.664062-19.84375 1.9375c-3.019531.289062-5.511719 2.488281-6.183594 5.445312-2.402344 10.710938-6.714844 20.902344-12.734375 30.082031-1.675781 2.566407-1.484375 5.925781.46875 8.289063l12.773438 15.410156-16.097657 16.066406-15.421874-12.785156c-2.375-1.972656-5.761719-2.152344-8.332032-.449219-9.136718 6.050781-19.324218 10.335938-30.039062 12.628907-2.972656.605468-5.203125 3.074218-5.5 6.089843l-1.941406 19.949219h-22.886719l-1.941407-19.949219c-.296874-3.03125-2.527343-5.515625-5.507812-6.132812-10.71875-2.367188-20.914062-6.65625-30.101562-12.660157-2.566407-1.644531-5.90625-1.441406-8.25.507813l-15.425782 12.792969-16.097656-16.0625 12.777344-15.414063c1.972656-2.378906 2.152344-5.769531.441406-8.339843-6.0625-9.117188-10.363281-19.292969-12.675781-29.992188-.699219-2.988281-3.230469-5.195312-6.285157-5.480469l-20.195312-1.941406v-22.832031l20.195312-1.945313c3.027344-.285156 5.535157-2.480469 6.214844-5.445312 2.410156-10.710938 6.726563-20.902344 12.75-30.078125 1.679688-2.566406 1.492188-5.925782-.460937-8.289063l-12.773438-15.410156 16.101563-16.070313 15.421875 12.789063c2.375 1.96875 5.757812 2.152344 8.332031.449219 9.132812-6.050782 19.324219-10.335938 30.039062-12.628906 2.957032-.566407 5.195313-3.007813 5.5-6l1.941407-19.867188h22.886719l1.941406 19.863281c.300781 3.019531 2.535156 5.488281 5.507812 6.089844 10.71875 2.355469 20.917969 6.636719 30.101563 12.636719 2.570312 1.640625 5.910156 1.429687 8.253906-.523438l15.390625-12.773437 15.855469 16.007812-12.800781 15.441407c-1.96875 2.378906-2.148438 5.765624-.4375 8.339843 6.0625 9.117188 10.359374 19.289063 12.675781 29.992188.644531 2.972656 3.136719 5.1875 6.164062 5.476562l6.882813.667969c.628906.183594 1.28125.277344 1.9375.277344.207031 0 .476562-.011719.683594-.03125l10.699218 1.027344zm-464-219.335938h446v61h-446zm439.789062 155.773438 6.210938-7.492188v19.808594c-2-4.238282-3.859375-8.347656-6.210938-12.316406zm-405.636718-227.773438h377.4375c18.761718 0 34.410156 15.109375 34.410156 33.871094v24.128906h-446v-24.128906c.09375-18.777344 15.375-33.933594 34.152344-33.871094zm-34.152344 147h446v47.890625l-18.019531-18.011719c-2.589844-2.578125-6.710938-2.78125-9.539063-.464844l-16.519531 13.660157c-7.945313-4.660157-16.46875-8.25-25.355469-10.683594l-2.082031-21.230469c-.371094-3.558594-3.410156-6.238281-6.984375-6.160156h-35.601562c-3.570313-.074219-6.601563 2.605469-6.964844 6.160156l-2.074219 21.3125c-8.898437 2.367188-17.429687 5.9375-25.359375 10.613282l-16.433594-13.648438c-2.777344-2.308594-6.855468-2.125-9.414062.421875l-25.125 25.070313c-2.558594 2.554687-2.753906 6.636718-.445313 9.421874l13.644531 16.453126c-4.652343 7.925781-8.246093 16.429687-10.6875 25.289062l-21.601562 2.078125c-3.609375.339844-6.386719 3.339844-6.4375 6.96875v35.542969c.070312 3.578125 2.871094 6.507812 6.441406 6.738281l18.832032 1.578125h-212.121094c-18.761719 0-34.152344-14.800781-34.152344-33.5625zm0 0" data-original="#000000" class="active-path" data-old_color="#000000" fill="#424856"/><path d="m98.921875 281.800781c16.738281-.023437 31.414063-11.1875 35.902344-27.308593 4.976562 17.960937 22.457031 29.480468 40.921875 26.96875 18.46875-2.511719 32.238281-18.28125 32.238281-36.917969s-13.769531-34.40625-32.238281-36.917969c-18.464844-2.507812-35.945313 9.011719-40.921875 26.972656-5.148438-18.578125-23.613281-30.160156-42.578125-26.707031-18.964844 3.457031-32.164063 20.804687-30.425782 40.003906 1.734376 19.199219 17.828126 33.902344 37.101563 33.902344zm71.796875-60.511719c12.84375 0 23.257812 10.410157 23.257812 23.253907 0 12.847656-10.414062 23.257812-23.257812 23.257812s-23.257812-10.410156-23.257812-23.257812c.011718-12.839844 10.417968-23.246094 23.257812-23.261719zm-71.796875 0c12.847656-.003906 23.257813 10.410157 23.257813 23.253907s-10.410157 23.257812-23.253907 23.257812c-12.847656 0-23.257812-10.410156-23.257812-23.257812.011719-12.839844 10.414062-23.246094 23.253906-23.261719zm0 0" data-original="#000000" class="active-path" data-old_color="#000000" fill="#424856"/><path d="m363.578125 223.3125c-38.980469.050781-70.539063 31.683594-70.507813 70.664062.035157 38.976563 31.652344 70.554688 70.632813 70.535157 38.980469-.015625 70.570313-31.621094 70.570313-70.597657-.070313-39-31.695313-70.582031-70.695313-70.601562zm0 127.199219c-31.246094-.050781-56.539063-25.414063-56.507813-56.660157.035157-31.25 25.386719-56.554687 56.632813-56.539062s56.570313 25.351562 56.570313 56.601562c-.0625 31.269532-25.425782 56.585938-56.695313 56.597657zm0 0" data-original="#000000" class="active-path" data-old_color="#000000" fill="#424856"/></g> </svg>
