<svg xmlns="http://www.w3.org/2000/svg" width="30" height="30" viewBox="0 0 29 36">
  <g id="Credit_Amount" data-name="Credit Amount" transform="translate(-650 -240)">
    <g id="noun_Money_Bag_2228872" data-name="noun_Money Bag_2228872" transform="translate(650 240)">
      <g id="Group_2364" data-name="Group 2364" transform="translate(0 0)">
        <path id="Path_281" data-name="Path 281" d="M20.052,292.622a.24.24,0,0,0,.223.33h1.3a.7.7,0,0,1,0,1.395h-.318a.24.24,0,0,0-.136.438,22.474,22.474,0,0,1,9.467,15.422,8.015,8.015,0,0,1-4.379,8.268,22.61,22.61,0,0,1-20.093,0,8.015,8.015,0,0,1-4.379-8.268A22.474,22.474,0,0,1,11.2,294.784a.241.241,0,0,0-.136-.438h-.318a.7.7,0,1,1,0-1.395h.717a.24.24,0,0,0,.189-.39,12.13,12.13,0,0,0-4.749-3.62.481.481,0,0,1-.13-.8L8.626,286.5A.953.953,0,0,1,9.5,286.3l.812.218a1.012,1.012,0,0,0,.8-.12l1.628-1.022a.76.76,0,0,1,.7-.054l1.182.509a1.048,1.048,0,0,0,.957-.066l1.213-.734a1.372,1.372,0,0,1,1.441.012l1.449.913a1.032,1.032,0,0,0,.939.083l1.605-.652a2.678,2.678,0,0,1,3.065,1.4.481.481,0,0,1-.235.655,9.545,9.545,0,0,0-5.01,5.187Z" transform="translate(-1.661 -284.829)" fill="#9300be"/>
      </g>
    </g>
    <g id="Group_2365" data-name="Group 2365" transform="translate(654 262.737)">
      <path id="Path_260" data-name="Path 260" d="M16.727,73.859c2.443.119,4.437-.147,4.452-.46l-.095,1.933c-.015.313-2.119.8-4.562.68s-4.192-.47-4.177-.783l-.015-2.153C12.314,73.389,14.283,73.739,16.727,73.859Z" transform="translate(-1.173 -67.298)" fill="#fff"/>
      <path id="Path_261" data-name="Path 261" d="M14.041,61.747V59.812c0,.313,1.983.567,4.43.567s4.43-.254,4.43-.567v1.935c0,.313-1.983.567-4.43.567S14.041,62.06,14.041,61.747Z" transform="translate(-2.511 -56.787)" fill="#fff"/>
      <path id="Path_262" data-name="Path 262" d="M15.7,46.524c2.446,0,4.43-.254,4.43-.567v1.935c0,.313-1.983.567-4.43.567s-4.43-.254-4.43-.567V45.957C11.269,46.27,13.252,46.524,15.7,46.524Z" transform="translate(-0.344 -45.957)" fill="#fff"/>
      <path id="Path_263" data-name="Path 263" d="M13.188,33.957V32.022c0,.313,1.983.567,4.43.567s4.43-.254,4.43-.567v1.935c0,.313-1.984.567-4.43.567S13.188,34.27,13.188,33.957Z" transform="translate(-11.678 -25.589)" fill="#fff"/>
      <path id="Path_264" data-name="Path 264" d="M16.707,15.884c2.432,0,4.4.251,4.429.562a.035.035,0,0,0,0-.005v1.935c0,.313-1.984.567-4.43.567s-4.43-.254-4.43-.567V16.44s0,0,0,.005C12.3,16.135,14.275,15.884,16.707,15.884Z" transform="translate(-12.277 -13.271)" fill="#fff"/>
    </g>
  </g>
</svg>
