<?xml version="1.0"?>
<svg xmlns="http://www.w3.org/2000/svg" xmlns:xlink="http://www.w3.org/1999/xlink" version="1.1" id="Capa_1" x="0px" y="0px" viewBox="0 0 512.001 512.001" style="enable-background:new 0 0 512.001 512.001;" xml:space="preserve" width="512px" height="512px" class=""><g><path style="fill:#FFDE78;" d="M291.482,284.256l138.23-138.23c31.928-31.928,31.782-83.782-0.438-115.528  c-31.965-31.495-83.647-30.574-115.378,1.157l-35.898,35.898c-8.668,8.668-8.668,22.721,0,31.389l0,0  c8.668,8.668,22.721,8.668,31.389,0l36.104-36.104c14.667-14.667,38.953-14.947,53.337-0.002  c13.939,14.482,13.771,37.524-0.505,51.8L52.1,460.86c-7.423,7.423-7.423,19.459,0,26.882l4.507,4.507  c7.423,7.423,19.459,7.423,26.882,0l150.655-150.655" data-original="#FFDE78"/><g>
	<path style="fill:#E6C96C;" d="M63.122,471.882L409.344,125.66c14.276-14.276,14.445-37.318,0.505-51.8   c-2.005-2.082-4.206-3.858-6.542-5.352c9.205,14.321,7.544,33.601-4.985,46.131L52.1,460.86c-7.423,7.423-7.423,19.459,0,26.882   l4.507,4.507c1.126,1.126,2.367,2.059,3.672,2.843C55.89,487.787,56.824,478.179,63.122,471.882z" data-original="#E6C96C"/>
	<path style="fill:#E6C96C;" d="M277.998,98.942c1.942,1.942,4.163,3.424,6.525,4.496c-3.712-8.179-2.229-18.138,4.496-24.864   l35.898-35.898c30.048-30.048,77.975-32.448,110.12-5.875c-1.792-2.175-3.711-4.281-5.764-6.303   c-31.965-31.494-83.647-30.573-115.378,1.158l-35.898,35.898C269.33,76.221,269.33,90.275,277.998,98.942L277.998,98.942z" data-original="#E6C96C"/>
</g><polyline style="fill:#FFFFFF;" points="267.355,248.221 297.436,278.302 379.833,193.29 349.751,163.208 " data-original="#FFFFFF"/><polygon style="fill:#E7F5FD;" points="360.439,173.896 370.136,183.593 349.751,163.208 267.355,248.221 278.042,258.908 " data-original="#E7F5FD" class=""/><rect x="337.122" y="192.431" transform="matrix(-0.7071 -0.7071 0.7071 -0.7071 446.8322 584.7437)" width="14.797" height="14.797" data-original="#000000" class=""/><rect x="316.197" y="213.347" transform="matrix(-0.7071 -0.7071 0.7071 -0.7071 396.3211 605.6531)" width="14.797" height="14.797" data-original="#000000" class=""/><rect x="295.262" y="234.277" transform="matrix(-0.7071 -0.7071 0.7071 -0.7071 345.7832 626.5793)" width="14.797" height="14.797" data-original="#000000" class=""/><rect x="378.971" y="25.016" transform="matrix(-0.7071 -0.7071 0.7071 -0.7071 636.6526 328.5396)" width="14.797" height="14.797" data-original="#000000" class=""/><rect x="415.592" y="61.639" transform="matrix(-0.7071 -0.7071 0.7071 -0.7071 673.2738 416.9535)" width="14.797" height="14.797" data-original="#000000" class=""/><rect x="143.564" y="385.994" transform="matrix(-0.7071 -0.7071 0.7071 -0.7071 -20.4618 778.3098)" width="14.797" height="14.797" data-original="#000000" class=""/><rect x="86.009" y="443.541" transform="matrix(-0.7071 -0.7071 0.7071 -0.7071 -159.4051 835.8502)" width="14.797" height="14.797" data-original="#000000" class=""/><path style="fill:#EF6256;" d="M348.22,296.2c-28.558-20.51-68.571-17.942-94.243,7.731l0,0  c-9.536,9.536-15.998,21.166-19.303,33.48c-6.705,24.987,1.067,51.648,19.36,69.942l94.186,94.186l94.186-94.186  c18.293-18.293,26.065-44.955,19.36-69.942c-3.305-12.314-9.767-23.943-19.303-33.48l0,0  C416.791,278.258,376.778,275.691,348.22,296.2z" data-original="#EF6256" class=""/><path style="fill:#DA594F" d="M288.527,407.352c-18.293-18.294-26.065-44.955-19.36-69.942c3.305-12.314,9.767-23.943,19.303-33.48  c9.847-9.847,21.806-16.281,34.416-19.332c-23.936-5.788-50.22,0.643-68.908,19.332c-9.536,9.536-15.998,21.165-19.303,33.48  c-6.705,24.987,1.067,51.648,19.36,69.942l94.186,94.186l17.246-17.246L288.527,407.352z" data-original="#DA594F" class="active-path"/><rect x="180.173" y="349.374" transform="matrix(0.7071 0.7071 -0.7071 0.7071 307.2146 -28.137)" width="14.797" height="14.797" data-original="#000000" class=""/><rect x="300.517" y="61.644" transform="matrix(0.7071 0.7071 -0.7071 0.7071 139.0069 -197.5069)" width="14.797" height="14.797" data-original="#000000" class=""/><path d="M468.912,335.492c-3.737-13.928-11.073-26.65-21.217-36.793c-13.577-13.578-31.585-21.862-50.705-23.329  c-17.163-1.317-34.289,2.901-48.77,11.929c-11.257-7.018-24.11-11.115-37.341-11.98l124.063-124.063  c16.857-16.857,26.091-39.27,26.002-63.11c-0.088-23.837-9.493-46.182-26.48-62.92c-34.608-34.099-91.042-33.563-125.801,1.197  l-35.898,35.898c-5.59,5.589-8.668,13.021-8.668,20.926s3.079,15.337,8.668,20.926c11.538,11.539,30.313,11.539,41.852,0  l36.104-36.105c5.759-5.758,13.738-9.032,21.976-8.937c8.003,0.077,15.389,3.214,20.799,8.835  c11.097,11.529,10.914,30.118-0.405,41.437L49.122,453.376c-11.539,11.539-11.539,30.313,0,41.853  c5.77,5.769,13.348,8.653,20.926,8.653c7.578,0,15.157-2.884,20.926-8.653l134.139-134.14c1.367,18.988,9.61,37.417,23.69,51.496  l99.417,99.417l99.417-99.417C468.044,392.176,476.196,362.637,468.912,335.492z M381.141,142.283l5.231,5.231l10.462-10.463  l-5.231-5.231l11.951-11.951c7.306-7.306,11.51-16.632,12.613-26.264l6.825,6.825l10.463-10.462l-10.463-10.462l-6.596,6.596  c-0.541-10.31-4.606-20.465-12.238-28.394c-8.187-8.507-19.309-13.255-31.318-13.371c-2.238-0.02-4.468,0.13-6.669,0.438  l0.583-0.583l-11.77-11.771l-10.463,10.462l6.694,6.694c-4.017,2.102-7.724,4.799-10.955,8.03L313.13,84.735l-3.924-3.924  l-10.463,10.462l3.806,3.806c-5.792,4.339-14.057,3.895-19.32-1.369c-2.795-2.796-4.335-6.511-4.335-10.463  c0-3.952,1.54-7.668,4.335-10.462l35.133-35.133l5.231,5.231l10.462-10.462l-4.335-4.335c27.089-18.667,63.721-17.705,89.253,3.121  l-6.446,6.446l10.462,10.462l6.454-6.454c10.752,13.105,16.639,29.355,16.703,46.542c0.058,15.565-4.673,30.389-13.471,42.839  l-9.685-9.685l-10.462,10.462l10.462,10.462l1.497-1.497c-0.003,0.003-0.006,0.007-0.01,0.01l-43.34,43.339l-5.231-5.231  l10.463-10.463l-10.462-10.463l-10.463,10.463l-5.231-5.231L381.141,142.283z M349.751,173.672l20.926,20.926l-73.241,73.241  l-20.926-20.926L349.751,173.672z M226.799,338.476l-13.067,13.067l-5.231-5.231l-10.463,10.462l5.231,5.231l-78.472,78.473  l-5.231-5.231l-10.462,10.463l5.231,5.231l-33.822,33.823c-3.863,3.863-9.345,5.126-14.279,3.816l2.325-2.325l-10.462-10.463  l-2.325,2.325c-1.309-4.934-0.047-10.416,3.816-14.279l49.516-49.517l5.232,5.231l10.462-10.463l-5.231-5.231l26.158-26.158  l5.231,5.231l10.462-10.462l-5.231-5.231l47.084-47.084l5.232,5.231l10.462-10.462l-5.232-5.231l52.315-52.315l20.173,20.173  c-10.263,2.556-19.94,7.094-28.455,13.398l-7.413-7.413l-10.462,10.463l6.819,6.819c-9.089,9.772-15.699,21.7-19.181,34.676  C227.263,336.484,227.023,337.479,226.799,338.476z M437.175,402.121l-88.954,88.953l-88.953-88.953  c-16.679-16.679-23.364-40.74-17.447-62.793c3.066-11.424,9.079-21.856,17.388-30.166c12.78-12.78,29.548-19.328,46.432-19.328  c13.316,0,26.704,4.073,38.264,12.375l4.316,3.099l4.316-3.099c26.218-18.829,61.839-15.905,84.696,6.953  c8.31,8.31,14.323,18.742,17.388,30.166C460.538,361.38,453.854,385.441,437.175,402.121z" data-original="#000000" class=""/><g>
	
		<rect x="398.704" y="391.072" transform="matrix(-0.7071 -0.7071 0.7071 -0.7071 411.1264 968.2902)" style="fill:#FFFFFF;" width="14.797" height="15.852" data-original="#FFFFFF"/>
	<path style="fill:#FFFFFF;" d="M429.831,385.739l-10.462-10.462c14.423-14.424,14.423-37.892,0-52.315l10.462-10.462   C450.024,332.69,450.024,365.546,429.831,385.739z" data-original="#FFFFFF"/>
</g></g> </svg>
