<svg xmlns="http://www.w3.org/2000/svg" width="30" height="30" viewBox="0 0 35 33.588">
  <g id="Family" transform="translate(-0.991 -2.106)">
    <g id="Group_2356" data-name="Group 2356" transform="translate(0.991 2.106)">
      <path id="Path_232" data-name="Path 232" d="M19.888,7.088a.858.858,0,0,1,.238.722c-.054.706-.19,3.62-.229,4.325a31.226,31.226,0,0,1,3.9,1.327c.006-.05-.144-.567-.137-.617a3.6,3.6,0,0,1,2.107-6.6c.04,0,.078.008.118.01.01-.012.023-.022.033-.033.13-.138.258-.279.38-.422a5.079,5.079,0,0,0,.8-1.208,1.518,1.518,0,0,0,.177-.666.657.657,0,0,0-.4-.6.587.587,0,0,0-.672.171c-.118.108-.222.23-.332.345A6.591,6.591,0,0,1,23.561,5.82a2.618,2.618,0,0,1-.822.154,2.97,2.97,0,0,1-.645-.051A3.659,3.659,0,0,1,19.652,3.79c-.233-.434-.423-.891-.654-1.327-.218-.414-.343-.44-.769-.226a.927.927,0,0,0-.2.565,6.729,6.729,0,0,0,.252,1.682A6.435,6.435,0,0,0,19.888,7.088Zm-5.095,3.377a3.642,3.642,0,0,0,3.618-3.349A3.282,3.282,0,0,0,15.345,3.3a3.91,3.91,0,0,0-3.9,3.543A3.486,3.486,0,0,0,14.793,10.465Zm7.615-.752a3.227,3.227,0,1,0,3.348-3.1A3.226,3.226,0,0,0,22.408,9.713Zm.25-4.187a1.557,1.557,0,0,0,1.494-1.441,1.443,1.443,0,0,0-1.378-1.552,1.4,1.4,0,0,0-1.5,1.44A1.47,1.47,0,0,0,22.658,5.526Zm13.227.116a.975.975,0,0,0-1.78-.292,30.811,30.811,0,0,0-1.581,3.175,11.087,11.087,0,0,1-3.625,4.8,16.825,16.825,0,0,1-7.265,2.465,23.442,23.442,0,0,1-2.527.256c-.541.021-1.112.024-1.429.533-.293.473-.5,1.372-.051,1.818a3.271,3.271,0,0,0,1.353.536,9.458,9.458,0,0,0,2.11.4c.637.052,1.623-.13,2.178.246s.289,1.576.246,2.117a12.233,12.233,0,0,1-.933,4,6.621,6.621,0,0,0-.5.959,1.826,1.826,0,0,0,.193,1.071c.42,1.17-.749,2.455-1.267,2.9a27.349,27.349,0,0,1-2.668,1.724s4.606,3.187,9.356.742a7.892,7.892,0,0,0,3.866-4.979,30.86,30.86,0,0,0,.156-7.536,15.271,15.271,0,0,1,.388-4.155c.441-.927,1.153-1.714,1.651-2.607a18.01,18.01,0,0,0,1.736-4.3,17.225,17.225,0,0,0,.465-2.64A2.924,2.924,0,0,0,35.886,5.642Zm-23.1,20.251a2.49,2.49,0,0,0,2.3,2.537,2.428,2.428,0,0,0,2.657-2.588,2.247,2.247,0,0,0-2.468-2.3A2.421,2.421,0,0,0,12.785,25.892Zm9.01,2.761c.041-.263.152-.6-.127-.766a.934.934,0,0,0-.851.022c-2.449,1.01-5.285,1.921-7.9.975a6.93,6.93,0,0,1-1.949-1.12c-.456-.371-2.891-2.715-3.081-1.063a3.516,3.516,0,0,0,1.244,2.68c.421.431.686.971,1.33,1.241a1.424,1.424,0,0,1,.756,1.536c-.088,1.495-.07,1.485-.119,2.982a22,22,0,0,0,4.035.539c.644.025,1.281.015,1.916-.015.08-1.15.09-.793.144-1.944.024-.508-.129-1.6.49-1.832a11.017,11.017,0,0,0,3.564-2.231A1.712,1.712,0,0,0,21.8,28.653ZM9.819,26.224A16.1,16.1,0,0,0,11.3,27.309c.171.116.754.651.957.491.107-.085-.149-.437-.188-.542a3.465,3.465,0,0,1,.618-3.336,4.036,4.036,0,0,1,3.527-1.095c.2.052.436.19.48-.18.1-.845-.058-1.726-.013-2.579a20.917,20.917,0,0,1,.516-3.882.884.884,0,0,1,.976-.717,31.409,31.409,0,0,0,6.305-.7c.314-.174.184-.27-.048-.4a15.387,15.387,0,0,0-3.919-1.44c-3.387-.812-6.9-1.242-10.12-2.648A14.611,14.611,0,0,1,5.875,7.178c-.542-.544-1.03-1.144-1.548-1.714a5.858,5.858,0,0,0-.621-.632A1.74,1.74,0,0,0,1.737,4.4,1.993,1.993,0,0,0,.992,5.979,4.348,4.348,0,0,0,1.8,7.934a17.985,17.985,0,0,0,2.843,3.523q.9.873,1.816,1.738a4.382,4.382,0,0,1,1.2,1.651,4.226,4.226,0,0,1,.171.617A14.994,14.994,0,0,1,7.187,19.2c-1.3,4.451.086,6.871.086,6.871l.431-.35C8.51,25.216,9.174,25.668,9.819,26.224Z" transform="translate(-0.991 -2.106)" fill="#fc1058" fill-rule="evenodd"/>
    </g>
  </g>
</svg>
