<svg width="40" height="39" viewBox="0 0 40 39" fill="none" xmlns="http://www.w3.org/2000/svg">
<path d="M29.8995 27.2783L21.7678 19.1465L29.5459 11.3684C29.937 10.9773 29.9363 10.3445 29.5459 9.95414C29.1556 9.56382 28.5228 9.56311 28.1317 9.95414L20.3536 17.7323L12.2218 9.60059C11.8315 9.21027 11.1986 9.20956 10.8076 9.60059C10.4166 9.99162 10.4173 10.6245 10.8076 11.0148L18.9393 19.1465L10.4541 27.6318C10.063 28.0228 10.0637 28.6557 10.4541 29.046C10.8444 29.4364 11.4772 29.4371 11.8683 29.046L20.3536 20.5607L28.4853 28.6925C28.8756 29.0828 29.5085 29.0835 29.8995 28.6925C30.2905 28.3014 30.2898 27.6686 29.8995 27.2783Z" fill="#E23B3B"/>
</svg>
