<svg xmlns="http://www.w3.org/2000/svg"  width="30" height="30" viewBox="0 0 27.564 12.08">
  <defs><style>.a{fill:#ffce12;}</style></defs>
  <g id="Group_2365" data-name="Group 2365" transform="translate(-3141.605 2111.814)">
    <path class="a" id="Path_260" data-name="Path 260" d="M18.274,74.134c3.3.161,6-.2,6.019-.622l-.128,2.613c-.02.423-2.864,1.081-6.168.919s-5.667-.635-5.646-1.058l-.021-2.91C12.309,73.5,14.97,73.972,18.274,74.134Z" transform="translate(3144.357 -2177.079)" fill="#fff"/>
    <path class="a" id="Path_261" data-name="Path 261" d="M14.041,62.428V59.812c0,.424,2.681.767,5.989.767s5.989-.343,5.989-.767v2.616c0,.424-2.681.767-5.989.767S14.041,62.852,14.041,62.428Z" transform="translate(3143.15 -2167.537)" fill="#fff"/>
    <path class="a" id="Path_262" data-name="Path 262" d="M17.258,46.723c3.307,0,5.989-.343,5.989-.766v2.616c0,.424-2.681.767-5.989.767s-5.989-.343-5.989-.767V45.957C11.269,46.381,13.95,46.723,17.258,46.723Z" transform="translate(3145.104 -2157.771)" fill="#fff"/>
    <path class="a" id="Path_263" data-name="Path 263" d="M13.188,34.638V32.022c0,.423,2.681.766,5.989.766s5.989-.343,5.989-.766v2.616c0,.423-2.682.767-5.989.767S13.188,35.062,13.188,34.638Z" transform="translate(3130.458 -2135.138)" fill="#fff"/>
    <path class="a" id="Path_264" data-name="Path 264" d="M18.266,15.884c3.287,0,5.955.339,5.987.759a.048.048,0,0,0,0-.007v2.616c0,.423-2.682.766-5.989.766s-5.989-.343-5.989-.766V16.636s0,0,0,.007C12.31,16.223,14.978,15.884,18.266,15.884Z" transform="translate(3129.328 -2124.166)" fill="#fff"/>
  </g>
</svg>
