<?xml version="1.0"?>
<svg xmlns="http://www.w3.org/2000/svg" height="512px" viewBox="0 -41 436 436" width="512px"><g><path d="m64.445312 115.109375c0-5.523437 4.476563-10 10-10h23.777344v-57.554687c0-5.523438 4.476563-10 10-10h225.183594c5.523438 0 10 4.476562 10 10v57.554687h18.148438c5.523437 0 10 4.476563 10 10v51.921875h60.75l-51.394532-147.21875c-4.304687-11.882812-15.582031-19.8007812-28.21875-19.8125h-269.382812c-12.664063.0195312-23.957032 7.972656-28.246094 19.886719l-51.046875 147.144531h60.429687zm0 0" data-original="#000000" class="active-path" data-old_color="#000000" fill="#424856"/><path d="m84.445312 167.03125h36.160157c4.769531 0 8.871093 3.367188 9.808593 8.039062 3.332032 13.488282 9.144532 26.234376 17.140626 37.59375 16.960937 23.886719 40.851562 36 71.007812 36 30.160156 0 54.050781-12.109374 71.007812-36 8-11.367187 13.816407-24.121093 17.148438-37.613281.953125-4.660156 5.042969-8.007812 9.796875-8.019531h35.039063v-41.921875h-267.109376zm0 0" data-original="#000000" class="active-path" data-old_color="#000000" fill="#424856"/><path d="m118.222656 57.554688h205.183594v47.554687h-205.183594zm0 0" data-original="#000000" class="active-path" data-old_color="#000000" fill="#424856"/><path d="m306.34375 223.585938c-14.398438 20.566406-41.3125 45.078124-87.78125 45.078124s-73.382812-24.511718-87.78125-45.078124c-7.761719-11.210938-13.777344-23.535157-17.835938-36.554688h-112.945312v137.632812c.0195312 16.5625 13.4375 29.984376 30 30h376c16.5625-.015624 29.980469-13.4375 30-30v-137.632812h-111.820312c-4.058594 13.019531-10.070313 25.34375-17.835938 36.554688zm0 0" data-original="#000000" class="active-path" data-old_color="#000000" fill="#424856"/></g> </svg>
