<svg xmlns="http://www.w3.org/2000/svg" width="30" height="30" viewBox="0 0 24.139 40.753">
  <g id="Maid" transform="translate(0 -153.407)">
    <g id="Group_2361" data-name="Group 2361" transform="translate(0 153.407)">
      <circle id="Ellipse_60" data-name="Ellipse 60" cx="3.776" cy="3.776" r="3.776" transform="translate(4.047 7.355) rotate(-76.891)" fill="#9300be"/>
      <path id="Path_239" data-name="Path 239" d="M57.527,58.067l.907,4.191a10.908,10.908,0,0,0,.7-1.11,5.948,5.948,0,0,0,.708-2.028l-.555-2.856a3.758,3.758,0,0,1,.783,1.343h0a3.4,3.4,0,0,1,.155.971c0,.023,0,.045,0,.069a5.639,5.639,0,0,1-.785,2.668,16.478,16.478,0,0,1-3.094,3.856,1.142,1.142,0,1,0,1.589,1.64A18.713,18.713,0,0,0,61.452,62.4a7.9,7.9,0,0,0,1.059-3.754c0-.017,0-.034,0-.051a5.7,5.7,0,0,0-.26-1.671l0-.009a6.741,6.741,0,0,0-2.628-3.4c-.242-.17-.475-.316-.689-.44Z" transform="translate(-46.164 -42.998)" fill="#9300be"/>
      <path id="Path_240" data-name="Path 240" d="M31.514,53.334h3.63l1.493-5.307c-.159-.07-.26-.107-.28-.114l-.048-.018-.049-.013a12.842,12.842,0,0,0-2.93-.39,9.752,9.752,0,0,0-2.982.4,2.7,2.7,0,0,0-.325.132Z" transform="translate(-24.748 -38.393)" fill="#9300be"/>
      <path id="Path_241" data-name="Path 241" d="M42.145,103.047c.093-.09.181-.18.271-.269l-2.361-3.444a1.494,1.494,0,0,1-.987.713l2.642,3.853A1.486,1.486,0,0,1,42.145,103.047Z" transform="translate(-32.204 -81.127)" fill="#9300be"/>
      <path id="Path_242" data-name="Path 242" d="M28.1,117.051a9.614,9.614,0,0,0-6.872-2.174l-1.387-2.023h.9l-1.551-7.984a19.922,19.922,0,0,1-1.565,1.9l.484,2.235a1.637,1.637,0,0,1-.378.766l-1.259-1.836a1.486,1.486,0,0,1-.945.338,1.506,1.506,0,0,1-.324-.036l1.249,1.822H9.2c-.878,0-1.054-1.054-1.054-1.054L9.5,102.773a10.507,10.507,0,0,1-1.982-.212l-2,10.294H9.323v9.93a1.757,1.757,0,0,0,3.513,0v-9.93h.586v9.93a1.757,1.757,0,0,0,3.513,0v-9.93h1.434l1.859,2.711a9.615,9.615,0,0,0-.449,7.193c.969,2.779,5.625-.721,5.625-.721S30.346,118.957,28.1,117.051Z" transform="translate(-4.548 -83.788)" fill="#9300be"/>
      <path id="Path_243" data-name="Path 243" d="M5.358,52.914c.394,0,.816-.013,1.268-.04a1.142,1.142,0,0,0-.136-2.28q-.618.037-1.132.036a6.248,6.248,0,0,1-2.45-.35l-.056-.028a.623.623,0,0,1-.238-.177c-.013-.024-.017-.023-.021-.091v0a.026.026,0,0,1,0,0v0a2.086,2.086,0,0,1,.4-.964,6.527,6.527,0,0,1,.526-.7l.293.428-.268,1.379a8.185,8.185,0,0,0,1.76.163h.057q.452,0,.964-.027l-.546-.8.024-.111L4.416,44.429a13.808,13.808,0,0,0-1.349,1.077L1,42.5l-1,.689,2.183,3.184-.032.033A9.362,9.362,0,0,0,.913,48.026a3.937,3.937,0,0,0-.6,1.949c0,.023,0,.038,0,.049a.034.034,0,0,0,0,0,2.43,2.43,0,0,0,.406,1.313,3.069,3.069,0,0,0,1.509,1.125c.1.037.2.072.3.1A9.724,9.724,0,0,0,5.358,52.914Z" transform="translate(0 -34.275)" fill="#9300be"/>
    </g>
  </g>
</svg>
