<?xml version="1.0" encoding="iso-8859-1"?>
<!-- Generator: Adobe Illustrator 19.0.0, SVG Export Plug-In . SVG Version: 6.00 Build 0)  -->
<svg version="1.1" id="Layer_1" xmlns="http://www.w3.org/2000/svg" xmlns:xlink="http://www.w3.org/1999/xlink" x="0px" y="0px"
	 viewBox="0 0 469.333 469.333" style="enable-background:new 0 0 469.333 469.333;" xml:space="preserve">
<g>
	<g>
		<g>
			<path d="M234.667,256c70.583,0,128-57.417,128-128S305.25,0,234.667,0s-128,57.417-128,128S164.083,256,234.667,256z
				 M234.667,21.333c58.812,0,106.667,47.854,106.667,106.667s-47.854,106.667-106.667,106.667S128,186.812,128,128
				S175.854,21.333,234.667,21.333z"/>
			<path d="M416.833,325.438c-20.167-10.344-52.292-24.854-90.708-35.219c-5.333-1.5-10.958,1.469-12.813,6.698l-43.721,121.974
				l-13.237-66.203l20.438-61.313c1.083-3.25,0.542-6.833-1.479-9.615c-2-2.781-5.208-4.427-8.646-4.427h-64
				c-3.438,0-6.646,1.646-8.646,4.427c-2.021,2.781-2.563,6.365-1.479,9.615l20.438,61.313l-13.237,66.203l-43.721-121.974
				c-1.854-5.229-7.5-8.188-12.813-6.698c-38.417,10.365-70.542,24.875-90.708,35.219C20.125,342.063,0,374.875,0,411.052v15.615
				c0,23.531,19.146,42.667,42.667,42.667h384c23.521,0,42.667-19.135,42.667-42.667v-15.615
				C469.333,374.875,449.208,342.063,416.833,325.438z M42.667,448c-11.771,0-21.333-9.573-21.333-21.333v-15.615
				c0-28.146,15.687-53.677,40.917-66.635c17.563-9.01,44.625-21.333,77.042-30.927L187.521,448H42.667z M251.875,298.667
				l-16.667,49.958c-0.354,1.083-0.542,2.219-0.542,3.344c0-1.125-0.188-2.26-0.542-3.344l-16.667-49.958H251.875z M215.687,448
				l18.771-93.906c0.146-0.688,0.208-1.375,0.208-2.063c0,0.688,0.063,1.375,0.208,2.063L253.646,448H215.687z M448,426.667
				c0,11.76-9.563,21.333-21.333,21.333H281.812l48.229-134.51c32.417,9.594,59.479,21.917,77.042,30.927
				c25.25,12.958,40.917,38.49,40.917,66.635V426.667z"/>
		</g>
	</g>
</g>
<g>
</g>
<g>
</g>
<g>
</g>
<g>
</g>
<g>
</g>
<g>
</g>
<g>
</g>
<g>
</g>
<g>
</g>
<g>
</g>
<g>
</g>
<g>
</g>
<g>
</g>
<g>
</g>
<g>
</g>
</svg>
