<?xml version="1.0"?>
<svg xmlns="http://www.w3.org/2000/svg" xmlns:xlink="http://www.w3.org/1999/xlink" version="1.1" id="Capa_1" x="0px" y="0px" width="512px" height="512px" viewBox="0 0 844.801 844.801" style="enable-background:new 0 0 844.801 844.801;" xml:space="preserve"><g><g>
	<path d="M30,532.4h282.4v282.4c0,16.6,13.4,30,30,30h160c16.6,0,30-13.4,30-30V532.4h282.4c16.6,0,30-13.4,30-30v-160   c0-16.6-13.4-30-30-30H532.4V30c0-16.6-13.4-30-30-30h-160c-16.6,0-30,13.4-30,30v282.4H30c-16.6,0-30,13.4-30,30v160   C0,519,13.4,532.4,30,532.4z" data-original="#000000" class="active-path" data-old_color="#000000" fill="#FFFFFF"/>
</g></g> </svg>
