<?xml version="1.0" encoding="iso-8859-1"?>
<!-- Generator: Adobe Illustrator 19.0.0, SVG Export Plug-In . SVG Version: 6.00 Build 0)  -->
<svg version="1.1" id="Capa_1" xmlns="http://www.w3.org/2000/svg" xmlns:xlink="http://www.w3.org/1999/xlink" x="0px" y="0px"
	 viewBox="0 0 512 512" style="enable-background:new 0 0 512 512;" xml:space="preserve">
<g>
	<g>
		<polygon points="104.074,0 156.383,103.67 355.617,103.67 407.927,0 		"/>
	</g>
</g>
<g>
	<g>
		<polygon points="349.344,133.67 162.656,133.67 146.276,169.167 365.724,169.167 		"/>
	</g>
</g>
<g>
	<g>
		<path d="M447.166,345.656l-67.598-146.489H132.432L64.834,345.656c-16.833,36.478-13.955,78.46,7.698,112.3
			C94.186,491.797,131.099,512,171.273,512h169.453c40.175,0,77.088-20.203,98.741-54.044
			C461.121,424.116,463.999,382.135,447.166,345.656z M302.969,389.698L302.969,389.698c0,17.221-14.01,31.23-31.23,31.23H271v27.71
			h-30v-27.71h-19.95v-30h50.689c0.679,0,1.23-0.552,1.23-1.23v-31.149c0-0.679-0.552-1.23-1.23-1.23H239.6
			c-17.221,0-31.231-14.011-31.231-31.231v-27.831c0-17.221,14.011-31.231,31.231-31.231h1.4V237h30v30.024h19.95v30H239.6
			c-0.679,0-1.231,0.553-1.231,1.231v27.831c0,0.679,0.553,1.231,1.231,1.231h32.139c17.221,0,31.23,14.01,31.23,31.23V389.698z"/>
	</g>
</g>
<g>
</g>
<g>
</g>
<g>
</g>
<g>
</g>
<g>
</g>
<g>
</g>
<g>
</g>
<g>
</g>
<g>
</g>
<g>
</g>
<g>
</g>
<g>
</g>
<g>
</g>
<g>
</g>
<g>
</g>
</svg>
