<?xml version="1.0"?>
<svg xmlns="http://www.w3.org/2000/svg" xmlns:xlink="http://www.w3.org/1999/xlink" version="1.1" id="Capa_1" x="0px" y="0px" width="512px" height="512px" viewBox="0 0 227.84 227.84" style="enable-background:new 0 0 227.84 227.84;" xml:space="preserve"><g><g>
	<polygon points="179.957,66.446 171.678,74.726 204.979,108.042 119.992,107.871 120.155,22.386    153.117,55.345 161.396,47.065 114.329,0 66.446,47.886 74.726,56.163 108.042,22.861 107.87,107.848 22.386,107.685    55.345,74.726 47.065,66.446 0,113.511 47.886,161.396 56.165,153.117 22.861,119.799 107.848,119.97 107.685,205.454    74.726,172.496 66.446,180.775 113.511,227.84 161.396,179.957 153.117,171.678 119.798,204.979 119.97,119.992 205.454,120.158    172.495,153.117 180.775,161.396 227.84,114.329  " data-original="#030303" class="active-path" data-old_color="#030303" fill="#424856"/>
</g></g> </svg>
