<svg id="Open_Ticket" data-name="Open Ticket" xmlns="http://www.w3.org/2000/svg" width="35" height="35" viewBox="0 0 27.619 27.619">
  <g id="Group_2169" data-name="Group 2169" transform="translate(0 0)">
    <path id="Path_87" data-name="Path 87" d="M3.331,973.269l.418.418,2.3,2.3.418.419.418-.419a2.663,2.663,0,1,1,3.766,3.766l-.418.418.418.418,2.3,2.3.418.418.418-.418,16.739-16.739.418-.418-.418-.419-2.3-2.3-.418-.418-.418.418a2.663,2.663,0,0,1-3.766-3.766l.418-.418-.418-.419-2.3-2.3-.418-.418-.418.418L3.749,972.85l-.418.419Zm1.674,0L15.676,962.6l8.369,8.369L13.374,981.638l-1.51-1.51a3.83,3.83,0,0,0-5.355-5.355Zm11.508-11.508,4.394-4.394,1.5,1.5a3.83,3.83,0,0,0,5.355,5.355l1.51,1.51-4.394,4.394-8.369-8.369Z" transform="translate(-3.331 -955.693)" fill="#fff"/>
  </g>
  <g id="noun_Wrench_281114" transform="translate(8.791 18.281) rotate(-90)">
    <g id="Group_2375" data-name="Group 2375" transform="translate(0 0)">
      <path id="Path_297" data-name="Path 297" d="M3.369,23.837A2.719,2.719,0,0,1,2.792,23l-1.8,1.832a1,1,0,0,0-.289.707.939.939,0,0,0,.3.707,1.031,1.031,0,0,0,.707.289.985.985,0,0,0,.707-.3L4.22,24.4A2.576,2.576,0,0,1,3.369,23.837Z" transform="translate(-0.7 -19.754)" fill="#fff"/>
      <path id="Path_298" data-name="Path 298" d="M21.636,1.813a.341.341,0,0,0-.2-.173.264.264,0,0,0-.245.087l-1.01,1.024-.62-.606,1.01-1.024a.25.25,0,0,0,.072-.26.305.305,0,0,0-.173-.2A2.254,2.254,0,0,0,19.645.5a2.15,2.15,0,0,0,.043,4.3,2.13,2.13,0,0,0,1.948-2.986Z" transform="translate(-15.086 -0.5)" fill="#fff"/>
    </g>
  </g>
</svg>
