<?xml version="1.0"?>
<svg xmlns="http://www.w3.org/2000/svg" xmlns:xlink="http://www.w3.org/1999/xlink" version="1.1" id="Layer_1" x="0px" y="0px" viewBox="0 0 313.207 313.207" style="enable-background:new 0 0 313.207 313.207;" xml:space="preserve" width="512px" height="512px"><g><g>
	<path style="fill:#FFFFFF;" d="M156.604,30.391c-69.705,0-126.213,56.507-126.213,126.213c0,69.705,56.507,126.212,126.213,126.212   s126.212-56.507,126.212-126.212C282.816,86.898,226.309,30.391,156.604,30.391z M156.604,216.445   c-33.049,0-59.841-26.792-59.841-59.841c0-33.049,26.792-59.841,59.841-59.841s59.841,26.792,59.841,59.841   C216.445,189.653,189.653,216.445,156.604,216.445z" data-original="#FFFFFF"/>
	<g>
		<path style="fill:#FF9392;" d="M43.223,101.107l53.587,53.587c0.99-31.529,26.356-56.894,57.884-57.884l-53.587-53.587    C75.977,55.547,55.547,75.977,43.223,101.107z" data-original="#FF9392"/>
		<path style="fill:#FF9392;" d="M269.984,212.1l-53.587-53.587c-0.99,31.529-26.356,56.894-57.884,57.884l53.587,53.587    C237.23,257.66,257.66,237.23,269.984,212.1z" data-original="#FF9392"/>
	</g>
	<g>
		<path style="fill:#FF9392;" d="M101.107,269.984l53.587-53.587c-31.529-0.99-56.894-26.356-57.884-57.884L43.223,212.1    C55.547,237.23,75.977,257.66,101.107,269.984z" data-original="#FF9392"/>
		<path style="fill:#FF9392;" d="M212.1,43.223l-53.588,53.587c31.529,0.99,56.894,26.355,57.884,57.884l53.587-53.587    C257.66,75.977,237.23,55.547,212.1,43.223z" data-original="#FF9392"/>
	</g>
	<path style="fill:#13829B" d="M305.707,149.104h-15.606c-3.794-68.268-58.549-122.251-125.998-125.999V7.5   c0-4.143-3.357-7.5-7.5-7.5s-7.5,3.357-7.5,7.5v15.605C81.184,26.879,26.871,81.319,23.105,149.104H7.5c-4.143,0-7.5,3.357-7.5,7.5   s3.357,7.5,7.5,7.5h15.605c3.774,67.919,58.215,122.232,125.999,125.998v15.605c0,4.143,3.357,7.5,7.5,7.5s7.5-3.357,7.5-7.5   v-15.605c68.148-3.787,122.242-58.414,125.998-125.998h15.606c4.143,0,7.5-3.357,7.5-7.5S309.85,149.104,305.707,149.104z    M213.494,260.771l-39.201-39.2c22.533-6.145,40.918-23.954,47.277-47.277l39.2,39.201   C249.855,233.4,233.4,249.855,213.494,260.771z M114.212,267.486l42.391-42.391l42.391,42.391   C171.794,277.92,141.471,277.942,114.212,267.486z M45.721,114.212l42.39,42.391l-42.39,42.391   C35.287,171.794,35.265,141.47,45.721,114.212z M99.713,52.436l39.201,39.2c-22.594,6.161-40.936,24.018-47.277,47.278   L52.436,99.713C63.351,79.807,79.806,63.352,99.713,52.436z M198.994,45.721l-42.391,42.391l-42.391-42.391   C141.412,35.287,171.736,35.265,198.994,45.721z M260.77,99.713l-39.2,39.201c-6.26-22.956-24.391-41.038-47.278-47.277   l39.201-39.2C233.4,63.352,249.855,79.806,260.77,99.713z M156.604,208.944c-28.943,0-52.341-23.63-52.341-52.341   c0-28.901,23.592-52.341,52.341-52.341c28.891,0,52.341,23.582,52.341,52.341C208.944,185.497,185.362,208.944,156.604,208.944z    M52.436,213.494l39.201-39.202c6.171,22.637,24.059,40.947,47.277,47.278l-39.201,39.2   C79.806,249.855,63.351,233.4,52.436,213.494z M225.095,156.604l42.391-42.391c10.434,27.202,10.456,57.523,0,84.781   L225.095,156.604z" data-original="#13829B" class="active-path"/>
</g></g> </svg>
