<?xml version="1.0"?>
<svg xmlns="http://www.w3.org/2000/svg" height="512px" viewBox="0 -5 511.99915 511" width="512px"><g><path d="m391.65625 103.75c47.519531 0 87.652344 35.300781 93.671875 82.4375 6.941406 54.320312 10.160156 119.269531-9.53125 140.898438-29.75 32.664062-138.535156 32.664062-168.28125 0-19.695313-21.628907-16.476563-86.578126-9.535156-140.898438 6.023437-47.136719 46.15625-82.4375 93.675781-82.4375zm0 0" fill="#d6634f" data-original="#D6634F"/><path d="m485.328125 186.1875c-6.023437-47.136719-46.152344-82.4375-93.671875-82.4375-4.207031 0-8.351562.289062-12.421875.828125 41.929687 5.527344 75.761719 38.644531 81.25 81.609375 6.941406 54.320312 10.160156 119.269531-9.535156 140.898438-13.089844 14.375-41.484375 22.417968-71.714844 24.144531 38.464844 2.191406 79.90625-5.855469 96.5625-24.144531 19.691406-21.628907 16.472656-86.578126 9.53125-140.898438zm0 0" fill="#c34537" data-original="#C34537"/><path d="m262.34375 93.625c6.6875 4.921875 15.792969 4.921875 22.476562 0 12.371094-9.109375 31.410157-24.5625 38.203126-37.894531 8.578124-16.828125 2.359374-41.6875-17.535157-46.925781-11.554687-3.042969-25.378906 2.410156-31.054687 12.972656-.367188.683594-1.332032.683594-1.699219 0-5.675781-10.5625-19.5-16.015625-31.058594-12.972656-19.894531 5.238281-26.113281 30.097656-17.53125 46.925781 6.792969 13.332031 25.828125 28.785156 38.199219 37.894531zm0 0" fill="#ff5a58" data-original="#FF5A58"/><path d="m305.488281 8.804688c-3.480469-.914063-7.164062-1.046876-10.769531-.515626 11.542969 9.574219 14.175781 28.199219 7.304688 41.679688-6.796876 13.328125-25.832032 28.785156-38.203126 37.890625-1.6875 1.246094-3.53125 2.171875-5.453124 2.785156 1.382812 1.054688 2.714843 2.050781 3.976562 2.980469 6.683594 4.921875 15.789062 4.921875 22.476562 0 12.371094-9.109375 31.40625-24.5625 38.203126-37.894531 8.578124-16.828125 2.359374-41.683594-17.535157-46.925781zm0 0" fill="#ee374b" data-original="#EE374B"/><path d="m147.851562 345.84375c0-11.371094 0-57.382812 0-57.382812h-49.183593v57.382812c0 18.09375-57.199219 26.507812-69.949219 39.347656-18.324219 18.449219-7.339844 77.292969-2.203125 100.121094 1.207031 5.367188 5.96875 9.175781 11.472656 9.175781h170.546875c5.5 0 10.265625-3.808593 11.472656-9.175781 5.132813-22.828125 16.117188-81.671875-2.207031-100.121094-12.75-12.839844-69.949219-21.253906-69.949219-39.347656zm0 0" fill="#ffcca9" data-original="#FFCCA9"/><path d="m217.800781 385.191406c-12.75-12.839844-69.949219-21.253906-69.949219-39.347656 0-11.371094 0-57.382812 0-57.382812h-49.183593v.921874l32.488281 1.078126v65.632812c0 18.492188 46.199219 21.089844 58.949219 34.207031 18.324219 18.855469 7.339843 75.984375 2.207031 99.308594-.40625 1.835937-1.210938 3.484375-2.304688 4.875h18.527344c5.5 0 10.265625-3.804687 11.472656-9.171875 5.132813-22.828125 16.117188-81.671875-2.207031-100.121094zm0 0" fill="#ffa076" data-original="#FFA076"/><path d="m220.011719 485.316406c-1.214844 5.367188-5.980469 9.167969-11.476563 9.167969h-170.546875c-5.5 0-10.265625-3.800781-11.476562-9.167969-5.125-22.832031-16.109375-81.679687 2.207031-100.125 8.984375-9.039062 39.980469-15.894531 57.554688-25.46875 6.460937 13.957032 20.59375 23.640625 36.988281 23.640625s30.527343-9.683593 36.984375-23.640625c17.574218 9.574219 48.570312 16.429688 57.558594 25.46875 18.316406 18.445313 7.332031 77.292969 2.207031 100.125zm0 0" fill="#00d1b6" data-original="#00D1B6"/><path d="m209.554688 494.441406c2.226562-.191406 4.292968-1.015625 6.011718-2.296875.101563-.078125.210938-.152343.3125-.230469.046875-.039062.089844-.082031.136719-.117187 1.957031-1.617187 3.402344-3.863281 3.992187-6.484375.875-3.894531 1.921876-8.832031 2.960938-14.441406 5.0625-27.28125 10.027344-70.378906-5.167969-85.679688-8.964843-9.027344-40.027343-15.910156-57.554687-25.464844-2.386719 5.148438-5.816406 9.707032-10.015625 13.417969 14.289062 5.578125 32.570312 9.640625 39.875 17.15625 18.324219 18.855469 7.339843 75.984375 2.207031 99.308594-.40625 1.835937-1.214844 3.484375-2.308594 4.875h18.527344c.09375 0 .183594-.007813.277344-.011719.25-.003906.5-.007812.746094-.03125zm0 0" fill="#00b88e" data-original="#00B88E"/><path d="m160.246094 359.722656c-6.457032 13.957032-20.59375 23.640625-36.984375 23.640625-16.394531 0-30.527344-9.683593-36.988281-23.640625-5.652344 3.082032-12.699219 5.878906-19.949219 8.558594.019531 44.132812 22.652343 82.972656 56.9375 105.578125 34.28125-22.605469 56.914062-61.445313 56.933593-105.578125-7.25-2.679688-14.296874-5.476562-19.949218-8.558594zm0 0" fill="#f5eef3" data-original="#F5EEF3"/><path d="m150.234375 373.144531c9.367187 3.65625 20.445313 6.664063 29.03125 10.421875.605469-5.011718.929687-10.105468.929687-15.28125-7.253906-2.679687-14.296874-5.476562-19.949218-8.558594-2.382813 5.148438-5.816406 9.707032-10.011719 13.417969zm0 0" fill="#bed0e9" data-original="#BED0E9"/><path d="m98.667969 344.246094c7.75 2.828125 16.117187 4.375 24.84375 4.375 8.542969 0 16.734375-1.488282 24.339843-4.203125 0-13.335938 0-55.957031 0-55.957031h-49.183593zm0 0" fill="#ffa076" data-original="#FFA076"/><path d="m216.847656 238.53125-20.902344-.066406v-73.621094c9.429688-4.84375 18.558594-10.9375 27.152344-18.480469 12.046875 21.230469 19.886719 55.703125-6.25 92.167969zm0 0" fill="#f7ad48" data-original="#F7AD48"/><path d="m236.382812 133.042969c-4.257812 4.871093-8.699218 9.296875-13.285156 13.324219-8.59375 7.539062-17.722656 13.632812-27.152344 18.476562-52.40625 26.972656-113.953124 15.328125-144.871093-2.238281v75.457031l-16.550781-.054688c-37.167969-41.058593-36.035157-99.324218 3.804687-113.847656 36.789063-96.121094 198.054687-42.78125 198.054687 8.882813zm0 0" fill="#ffdc61" data-original="#FFDC61"/><g fill="#ffcca9"><path d="m214.890625 265.441406h-42.757813v-42.976562h42.757813c11.867187 0 21.488281 9.621094 21.488281 21.488281s-9.621094 21.488281-21.488281 21.488281zm0 0" data-original="#FFCCA9"/><path d="m32.132812 265.441406h42.757813v-42.976562h-42.757813c-11.867187 0-21.488281 9.621094-21.488281 21.488281s9.621094 21.488281 21.488281 21.488281zm0 0" data-original="#FFCCA9"/><path d="m195.945312 164.84375v85.355469c0 19.988281-8.097656 38.105469-21.214843 51.207031-13.113281 13.113281-31.214844 21.214844-51.21875 21.214844-40.007813 0-72.433594-32.429688-72.433594-72.421875v-87.59375c30.917969 17.566406 92.464844 29.210937 144.867187 2.238281zm0 0" data-original="#FFCCA9"/></g><path d="m176.097656 173.160156v77.039063c0 19.988281-8.101562 38.105469-21.214844 51.207031-10.90625 10.902344-25.265624 18.324219-41.292968 20.519531 3.246094.445313 6.554687.695313 9.921875.695313 20.003906 0 38.105469-8.101563 51.21875-21.214844 13.113281-13.101562 21.214843-31.21875 21.214843-51.207031v-85.355469c-6.5 3.347656-13.140624 6.097656-19.847656 8.316406zm0 0" fill="#ffa076" data-original="#FFA076"/><path d="m415.992188 345.84375c0-11.371094 0-57.382812 0-57.382812h-49.183594v57.382812c0 18.09375-57.199219 26.507812-69.949219 39.347656-18.320313 18.449219-7.339844 77.292969-2.203125 100.121094 1.207031 5.367188 5.96875 9.175781 11.472656 9.175781h170.546875c5.5 0 10.265625-3.808593 11.472657-9.175781 5.132812-22.828125 16.117187-81.671875-2.207032-100.121094-12.75-12.839844-69.949218-21.253906-69.949218-39.347656zm0 0" fill="#ffcca9" data-original="#FFCCA9"/><path d="m485.941406 385.191406c-12.75-12.839844-69.949218-21.253906-69.949218-39.347656 0-11.371094 0-57.382812 0-57.382812h-49.183594v4.816406l31.59375 6.183594v57.382812c0 18.09375 50.199218 26.507812 62.949218 39.347656 18.324219 18.449219 7.339844 66.292969 2.207032 89.121094-1.207032 5.367188-5.972656 9.175781-11.472656 9.175781h24.589843c5.503907 0 10.265625-3.808593 11.472657-9.175781 5.132812-22.828125 16.117187-81.671875-2.207032-100.121094zm0 0" fill="#ffa076" data-original="#FFA076"/><path d="m391.648438 345.617188c8.542968 0 16.734374-1.488282 24.34375-4.203126 0-15.773437 0-52.953124 0-52.953124h-49.183594v52.785156c7.75 2.828125 16.113281 4.371094 24.839844 4.371094zm0 0" fill="#ffa076" data-original="#FFA076"/><path d="m495.359375 440.363281c-5.15625-1.453125-10.511719-2.199219-15.867187-2.164062-6.394532.042969-12.765626 1.179687-18.789063 3.300781.023437.480469.03125.984375.03125 1.476562 0 8.511719-3.070313 16.21875-8.042969 21.804688l-1.386718 29.707031h-119.800782l-1.398437-29.707031c-4.960938-5.585938-8.042969-13.292969-8.042969-21.804688 0-.492187.007812-.996093.03125-1.476562-6.023438-2.121094-12.394531-3.257812-18.777344-3.300781-5.355468-.035157-10.710937.710937-15.871094 2.164062-1.898437-22.121093-.785156-44.898437 9.410157-55.171875 2.472656-2.492187 6.613281-4.820312 11.6875-7.074218 8.929687 21.292968 42.636719 37.128906 82.855469 37.128906 40.234374 0 73.929687-15.835938 82.859374-37.128906 5.070313 2.253906 9.214844 4.582031 11.683594 7.074218 10.195313 10.273438 11.320313 33.050782 9.417969 55.171875zm0 0" fill="#ff87b3" data-original="#FF87B3"/><path d="m474.253906 378.121094c-2.632812 6.277344-7.433594 12.074218-13.90625 17.136718 10.929688 9.503907 11.820313 29.160157 10.917969 43.609376 2.71875-.417969 5.46875-.652344 8.226563-.667969 5.355468-.035157 10.710937.707031 15.871093 2.164062 4.40625-51.269531-9.953125-57.246093-21.109375-62.242187zm0 0" fill="#ff569d" data-original="#FF569D"/><path d="m483.03125 265.441406h-42.757812v-42.976562h42.757812c11.867188 0 21.488281 9.621094 21.488281 21.488281s-9.621093 21.488281-21.488281 21.488281zm0 0" fill="#ffcca9" data-original="#FFCCA9"/><path d="m300.273438 265.441406h42.757812v-42.976562h-42.757812c-11.867188 0-21.488282 9.621094-21.488282 21.488281s9.621094 21.488281 21.488282 21.488281zm0 0" fill="#ffcca9" data-original="#FFCCA9"/><path d="m464.089844 203.714844v46.484375c0 19.988281-8.109375 38.109375-21.214844 51.203125-13.113281 13.117187-31.226562 21.214844-51.226562 21.214844-40.003907 0-72.429688-32.425782-72.429688-72.417969v-38.136719c14.996094-7.375 27.617188-18.832031 36.417969-32.90625 21.324219 17.628906 48.667969 28.230469 78.507812 28.230469 10.328125 0 20.363281-1.269531 29.945313-3.671875zm0 0" fill="#ffcca9" data-original="#FFCCA9"/><path d="m445.128906 206.898438v43.300781c0 19.988281-8.113281 38.109375-21.214844 51.203125-11.007812 11.007812-25.539062 18.457031-41.746093 20.578125 3.105469.40625 6.265625.636719 9.480469.636719 20 0 38.113281-8.101563 51.226562-21.214844 13.105469-13.09375 21.214844-31.214844 21.214844-51.207032v-46.480468c-6.148438 1.539062-12.484375 2.609375-18.960938 3.183594zm0 0" fill="#ffa076" data-original="#FFA076"/><path d="m289.261719 99.675781c14.445312-10.632812 33.179687-26.292969 40.4375-40.523437 5.78125-11.347656 6.101562-25.710938.828125-37.492188-4.582032-10.230468-12.796875-17.367187-23.132813-20.085937-11.871093-3.128907-25.207031.78125-33.8125 9.117187-8.609375-8.335937-21.941406-12.242187-33.816406-9.117187-4.003906 1.054687-6.394531 5.15625-5.339844 9.160156 1.054688 4.007813 5.15625 6.394531 9.160157 5.34375 8.480468-2.234375 18.59375 1.921875 22.539062 9.265625 1.476562 2.753906 4.335938 4.464844 7.457031 4.464844 3.117188 0 5.976563-1.710938 7.453125-4.464844 3.945313-7.34375 14.058594-11.5 22.539063-9.265625 7.515625 1.976563 11.359375 7.460937 13.265625 11.714844 3.410156 7.621093 3.214844 17.257812-.503906 24.546875-4.621094 9.066406-17.394532 21.585937-35.964844 35.257812-4.058594 2.988282-9.519532 2.992188-13.582032 0-18.570312-13.671875-31.34375-26.191406-35.964843-35.257812-2.789063-5.46875-3.644531-12.296875-2.347657-18.730469.820313-4.0625-1.808593-8.015625-5.871093-8.832031-4.058594-.828125-8.015625 1.804687-8.832031 5.867187-1.953126 9.6875-.609376 20.078125 3.6875 28.507813 7.257812 14.230468 25.996093 29.890625 40.433593 40.523437 4.695313 3.453125 10.1875 5.179688 15.6875 5.179688 5.492188 0 10.992188-1.726563 15.679688-5.179688zm0 0" data-original="#000000" class="active-path" style="fill:#000000"/><path d="m242.023438 137.992188c1.195312-1.367188 1.855468-3.121094 1.855468-4.9375 0-14.617188-10.066406-29.679688-28.34375-42.414063-16.613281-11.574219-38.34375-20.273437-61.183594-24.496094-18.171874-3.355469-45.296874-5.347656-71.308593 4.25-23.445313 8.648438-40.828125 25.207031-50.460938 48.003907-13.851562 6.058593-24.113281 17.46875-29.09375 32.457031-7.058593 21.261719-3.261719 47.28125 10.078125 70.867187-6.351562 5.320313-10.398437 13.308594-10.398437 22.222656 0 7.734376 3.011719 15.015626 8.492187 20.507813 5.480469 5.46875 12.753906 8.480469 20.484375 8.480469h14.742188c6.695312 22.523437 23.078125 40.921875 44.292969 50.34375v22.5625c0 .105468-.09375 2.667968-8.195313 7.140625-.195313.097656-.386719.199219-.574219.3125-5.097656 2.742187-11.570312 5.324219-18.292968 7.8125-.253907.078125-.503907.171875-.746094.277343-2.25.828126-4.519532 1.644532-6.773438 2.457032-6.734375 2.425781-13.09375 4.722656-18.691406 7.179687-3.789062 1.667969-5.515625 6.089844-3.847656 9.882813 1.671875 3.808594 6.109375 5.507812 9.882812 3.847656 4.484375-1.96875 9.730469-3.90625 15.3125-5.921875 3.234375 41.039063 25.109375 78.339844 59.886719 101.273437 1.253906.824219 2.691406 1.238282 4.128906 1.238282s2.875-.414063 4.128907-1.238282c34.78125-22.933593 56.65625-60.234374 59.886718-101.277343 10.445313 3.78125 21.535156 7.949219 25.195313 11.636719 10.644531 10.714843 10.726562 46.417968.214843 93.175781-.441406 1.960937-2.152343 3.332031-4.164062 3.332031h-170.527344c-2.007812 0-3.714844-1.363281-4.152344-3.332031-3.636718-16.132813-11.488281-56.261719-5.824218-80.390625.945312-4.03125-1.558594-8.066406-5.589844-9.011719-4.03125-.941406-8.066406 1.554687-9.011719 5.585937-6.144531 26.183594.992188 65.820313 5.789063 87.101563 1.980468 8.859375 9.707031 15.042969 18.789062 15.042969h170.527344c9.074219 0 16.800781-6.179688 18.796875-15.035156 2.445313-10.878907 6.71875-32.21875 7.863281-52.925782 1.476563-26.75-2.472656-44.453125-12.066406-54.113281-6.328125-6.375-18.78125-10.859375-33.195312-16.058594-2.261719-.816406-4.542969-1.636719-6.796876-2.46875-.214843-.089843-.4375-.171875-.664062-.246093-6.746094-2.496094-13.242188-5.082032-18.355469-7.832032-.175781-.109375-.359375-.207031-.546875-.300781-8.113281-4.476563-8.210937-7.039063-8.210937-7.148437v-22.289063c9.097656-3.949219 17.460937-9.621094 24.683593-16.84375 9.574219-9.566406 16.421876-21.136719 20.148438-33.773437h14.707031c7.734375 0 15.011719-3.007813 20.5-8.484376 5.472657-5.472656 8.488281-12.753906 8.488281-20.5 0-8.429687-3.621093-16.027343-9.382812-21.324218 13.492188-31.394532 5.808594-58.480469-2.070312-74.625 3.347656-3.183594 6.558593-6.535156 9.59375-10.003906zm-209.878907 119.945312c-3.730469 0-7.242187-1.457031-9.878906-4.089844-2.644531-2.648437-4.101563-6.167968-4.101563-9.902344 0-5.722656 3.457032-10.652343 8.390626-12.8125.117187-.042968.230468-.09375.34375-.144531 1.621093-.660156 3.394531-1.023437 5.246093-1.023437h11.449219v20.230468c0 2.609376.125 5.191407.371094 7.738282h-11.820313zm131.121094 111.644531c2.953125 1.328125 6.082031 2.597657 9.324219 3.847657-1.582032 36.429687-19.683594 69.949218-49.320313 91.304687-29.636719-21.355469-47.738281-54.871094-49.320312-91.300781 3.242187-1.25 6.371093-2.523438 9.324219-3.851563 8.875 13.121094 23.863281 21.269531 39.996093 21.269531 16.132813 0 31.121094-8.148437 39.996094-21.269531zm-13.15625-7.359375c-6.1875 8.4375-16.148437 13.632813-26.839844 13.632813-10.691406 0-20.652343-5.195313-26.839843-13.632813 6.011718-4.449218 9.75-9.699218 9.75-16.382812v-17.621094c5.585937 1.242188 11.386718 1.894531 17.339843 1.894531 5.730469 0 11.363281-.597656 16.835938-1.765625v17.492188c0 6.683594 3.738281 11.933594 9.753906 16.382812zm38.339844-112.023437c0 4.527343-.460938 8.984375-1.359375 13.316406-.058594.230469-.109375.460937-.148438.699219-2.625 11.992187-8.617187 23-17.507812 31.882812-6.796875 6.796875-14.835938 11.902344-23.605469 15.101563-.328125.09375-.648437.207031-.957031.339843-6.773438 2.351563-13.96875 3.578126-21.351563 3.578126-35.800781 0-64.929687-29.125-64.929687-64.917969v-27.574219c0-.050781.003906-.105469.003906-.15625v-47.761719c38.007812 16.558594 88.511719 18.910157 129.855469 1.867188zm4.261719-92.113281c-.066407.03125-.128907.0625-.195313.097656-43.277344 22.273437-101.347656 18.574218-137.71875-2.09375-.082031-.046875-.167969-.089844-.25-.132813-3.945313-2.257812-7.265625-4.578125-9.867187-6.855469-3.121094-2.726562-7.859376-2.40625-10.582032.714844-2.726562 3.117188-2.410156 7.855469.710938 10.582032 2.46875 2.15625 5.414062 4.328124 8.78125 6.453124v48.117188h-11.445313c-1.675781 0-3.316406.144531-4.914062.417969-11.589844-20.007813-15.25-42.503907-9.507813-59.804688 3.9375-11.847656 11.953125-20.277343 23.191406-24.371093 2.039063-.742188 3.65625-2.335938 4.433594-4.363282 5.5-14.371094 29.417969-60.160156 106.277344-45.949218 40.085938 7.40625 74.214844 29.613281 77.0625 49.507812-3.324219 3.628906-6.859375 7.097656-10.53125 10.328125-1.953125 1.710937-3.957031 3.363281-6.003906 4.949219-6.09375 4.71875-12.605469 8.871094-19.441406 12.402344zm28.441406 57.566406c-2.015625-.449219-4.113282-.683594-6.261719-.683594h-11.4375v-45.625c5.960937-3.320312 11.6875-7.066406 17.121094-11.214844 5.789062 13.496094 10.25 34.023438.578125 57.523438zm3.640625 38.183594c-2.648438 2.644531-6.164063 4.101562-9.902344 4.101562h-11.808594c.242188-2.558594.367188-5.140625.367188-7.738281v-20.230469h11.441406c7.714844 0 13.988281 6.269531 13.988281 13.976562 0 3.746094-1.453125 7.257813-4.085937 9.890626zm0 0" data-original="#000000" class="active-path" style="fill:#000000"/><path d="m96.289062 232.796875c0-4.140625-3.359374-7.5-7.5-7.5-4.144531 0-7.5 3.359375-7.5 7.5v2.257813c0 4.140624 3.359376 7.5 7.5 7.5 4.140626 0 7.5-3.359376 7.5-7.5zm0 0" data-original="#000000" class="active-path" style="fill:#000000"/><path d="m158.253906 242.550781c4.140625 0 7.5-3.355469 7.5-7.5v-2.253906c0-4.140625-3.359375-7.5-7.5-7.5s-7.5 3.359375-7.5 7.5v2.253906c0 4.144531 3.359375 7.5 7.5 7.5zm0 0" data-original="#000000" class="active-path" style="fill:#000000"/><path d="m109.296875 264.828125c-2.738281-3.109375-7.476563-3.40625-10.582031-.667969-3.109375 2.738282-3.40625 7.476563-.667969 10.585938 6.445313 7.308594 15.726563 11.5 25.472656 11.5 9.742188 0 19.027344-4.191406 25.472657-11.5 2.738281-3.109375 2.441406-7.847656-.664063-10.585938-3.109375-2.738281-7.847656-2.441406-10.585937.667969-3.597657 4.078125-8.78125 6.417969-14.222657 6.417969-5.441406.003906-10.625-2.339844-14.222656-6.417969zm0 0" data-original="#000000" class="active-path" style="fill:#000000"/><path d="m458.046875 363.835938c-8.097656-2.921876-16.4375-5.925782-23.074219-9.152344 20.898438-4.542969 37.042969-12.335938 46.355469-22.554688 10.328125-11.34375 15.804687-32.101562 16.710937-63.378906 1.964844-1.195312 3.804688-2.632812 5.472657-4.300781 5.472656-5.472657 8.488281-12.753907 8.488281-20.5 0-11.199219-6.390625-20.9375-15.714844-25.757813-.882812-10.382812-2.066406-21.441406-3.535156-32.949218-3.144531-24.609376-15.136719-47.1875-33.761719-63.5625-18.617187-16.394532-42.535156-25.421876-67.339843-25.421876-19.050782 0-37.652344 5.304688-53.789063 15.339844-3.515625 2.1875-4.59375 6.8125-2.40625 10.332032 2.1875 3.515624 6.8125 4.59375 10.328125 2.40625 13.757812-8.554688 29.617188-13.078126 45.867188-13.078126 21.15625 0 41.550781 7.699219 57.433593 21.679688 15.886719 13.96875 26.109375 33.21875 28.792969 54.203125 1.230469 9.65625 2.257812 18.976563 3.070312 27.832031h-9.371093v-11.253906c0-2.308594-1.0625-4.492188-2.886719-5.914062-1.820312-1.421876-4.191406-1.925782-6.4375-1.359376-41.40625 10.386719-85.597656-3.007812-114.335938-35.078124-2.765624-3.085938-7.507812-3.34375-10.589843-.582032-3.085938 2.761719-3.347657 7.503906-.582031 10.589844 2.847656 3.179688 5.839843 6.199219 8.957031 9.0625-7.785157 10.546875-17.980469 19.089844-29.796875 24.902344-2.5625 1.261718-4.1875 3.871094-4.1875 6.730468v2.902344h-9.367188c.804688-8.835937 1.832032-18.15625 3.066406-27.832031 2.042969-16.019531 8.484376-31.105469 18.625-43.625 2.609376-3.21875 2.113282-7.9375-1.105468-10.546875-3.21875-2.605469-7.941406-2.113281-10.546875 1.109375-11.898438 14.683594-19.453125 32.378906-21.851563 51.164063-1.472656 11.535156-2.65625 22.589843-3.527344 32.945312-9.328124 4.820312-15.71875 14.558594-15.71875 25.761719 0 7.738281 3.007813 15.015625 8.488282 20.507812 1.667968 1.664063 3.503906 3.101563 5.46875 4.292969.902344 31.277344 6.382812 52.039062 16.714844 63.382812 9.25 10.160157 25.273437 17.929688 45.996093 22.480469-6.664062 3.25-15.070312 6.28125-23.230469 9.222657-14.414062 5.199218-26.867187 9.6875-33.195312 16.058593-9.59375 9.664063-13.539062 27.363281-12.0625 54.117188 1.144531 20.742187 5.421875 42.066406 7.867188 52.914062 1.976562 8.859375 9.703124 15.046875 18.789062 15.046875h170.535156c9.066406 0 16.789063-6.183594 18.785156-15.035156 2.167969-9.640625 5.769532-27.5 7.359376-45.847656.007812-.070313.011718-.136719.015624-.207032.199219-2.289062.363282-4.582031.488282-6.871093 1.480468-26.753907-2.46875-44.457031-12.066406-54.113281-6.328126-6.378907-18.777344-10.867188-33.195313-16.0625zm13.527344-113.640626v-20.226562h11.4375c7.714843 0 13.988281 6.269531 13.988281 13.976562 0 8.085938-6.710938 13.988282-13.988281 13.988282h-11.804688c.242188-2.554688.367188-5.136719.367188-7.738282zm-3.261719 22.738282h14.5625c-1.414062 30.398437-7.523438 43.480468-12.636719 49.097656-8.242187 9.042969-25.0625 16.035156-46.761719 19.566406v-18.050781c9.097657-3.949219 17.460938-9.621094 24.6875-16.84375 9.570313-9.566406 16.417969-21.136719 20.148438-33.769531zm-141.601562-50.386719c0-.027344.003906-.050781.003906-.078125 0-.023438-.003906-.050781-.003906-.078125v-5.78125c11.980468-6.636719 22.398437-15.71875 30.605468-26.660156 28.339844 20.566406 64.15625 29.101562 99.257813 23.015625v9.351562.152344.15625 27.574219c0 4.503906-.453125 8.9375-1.34375 13.25-.074219.277343-.136719.558593-.179688.84375-2.632812 11.960937-8.621093 22.941406-17.492187 31.804687-6.777344 6.777344-14.789063 11.871094-23.53125 15.074219-.386719.101563-.761719.234375-1.121094.398437-6.75 2.332032-13.914062 3.542969-21.269531 3.542969-35.796875 0-64.925781-29.121093-64.925781-64.914062zm-36.324219 31.300781c-2.644531-2.648437-4.101563-6.164062-4.101563-9.898437 0-7.710938 6.273438-13.980469 13.980469-13.980469h11.449219v20.230469c0 2.609375.125 5.191406.371094 7.738281-10.28125-.1875-16.253907 1.34375-21.699219-4.089844zm22.664062 68.183594c-5.117187-5.617188-11.222656-18.699219-12.636719-49.097656h14.59375c6.695313 22.523437 23.078126 40.921875 44.292969 50.34375v18.238281c-21.449219-3.550781-38.082031-10.511719-46.25-19.484375zm16.765625 55.914062c22.875-8.25 44.484375-16.039062 44.484375-32.105468v-17.625c5.582031 1.242187 11.382813 1.894531 17.335938 1.894531 5.730469 0 11.367187-.597656 16.839843-1.765625v17.496094c0 16.066406 21.609376 23.855468 44.484376 32.105468 3.453124 1.242188 7.046874 2.539063 10.476562 3.851563-11.796875 15.363281-40.316406 25.9375-72.050781 25.9375s-60.25-10.574219-72.050781-25.9375c3.433593-1.3125 7.027343-2.609375 10.480468-3.851563zm-23.691406 109.023438c-2.007812 0-3.714844-1.363281-4.152344-3.328125-3.039062-13.496094-5.195312-26.070313-6.46875-37.390625 2.578125-.402344 5.171875-.59375 7.757813-.566406 3.867187.027344 7.714843.507812 11.496093 1.433594.742188 7.550781 3.492188 14.640624 7.964844 20.484374l.914063 19.367188zm174.691406-3.328125c-.441406 1.960937-2.152344 3.328125-4.152344 3.328125h-17.519531l.90625-19.363281c4.472657-5.839844 7.226563-12.929688 7.964844-20.488281 3.785156-.925782 7.636719-1.40625 11.503906-1.433594 2.585938-.023438 5.175781.167968 7.75.566406-1.269531 11.320312-3.421875 23.894531-6.453125 37.390625zm7.65625-52.371094c-3.003906-.410156-6.027344-.605469-9.050781-.585937-4.253906.03125-8.484375.480468-12.65625 1.34375-1.277344-4.71875-3.375-9.15625-6.199219-13.023438-2.441406-3.34375-7.132812-4.074218-10.476562-1.632812-3.34375 2.445312-4.078125 7.136718-1.632813 10.480468 2.835938 3.886719 4.496094 8.757813 4.734375 13.835938 0 .046875 0 .09375.003906.140625.007813.171875.015626.351563.019532.53125v.042969c0 .070312.003906.140625.003906.210937v.074219.269531c0 6.394531-2.183594 12.367188-6.144531 16.820313-1.144531 1.28125-1.8125 2.917968-1.890625 4.636718l-1.054688 22.554688h-105.476562l-1.0625-22.558594c-.082032-1.714844-.746094-3.347656-1.886719-4.628906-3.964844-4.464844-6.148437-10.4375-6.148437-16.824219 0-.089843 0-.179687 0-.269531 0-.027344 0-.054688 0-.082031 0-.066407.003906-.132813.003906-.199219 0-.019531 0-.035156 0-.050781.003906-.179688.011718-.355469.019531-.527344 0-.039063.003906-.078125.003906-.117187.234375-5.078126 1.898438-9.960938 4.738281-13.867188 2.441407-3.347656 1.703126-8.039062-1.644531-10.476562-3.351562-2.4375-8.039062-1.699219-10.476562 1.648437-2.816407 3.867187-4.910157 8.300781-6.1875 13.011719-4.171875-.863282-8.402344-1.3125-12.65625-1.34375-3.019531-.027344-6.046875.171875-9.058594.582031-.894531-20.125 1.730469-34.617187 7.878906-40.804687.773438-.78125 1.886719-1.585938 3.253907-2.402344 13.835937 20.734375 47.605468 34.671875 85.957031 34.671875 38.347656 0 72.117187-13.9375 85.957031-34.671875 1.367188.816406 2.476562 1.621094 3.253906 2.402344 6.140625 6.179687 8.765625 20.675781 7.875 40.808593zm0 0" data-original="#000000" class="active-path" style="fill:#000000"/><path d="m356.910156 242.550781c4.140625 0 7.496094-3.355469 7.496094-7.5v-2.253906c0-4.140625-3.355469-7.5-7.496094-7.5s-7.5 3.359375-7.5 7.5v2.253906c0 4.144531 3.355469 7.5 7.5 7.5zm0 0" data-original="#000000" class="active-path" style="fill:#000000"/><path d="m426.375 242.550781c4.140625 0 7.5-3.355469 7.5-7.5v-2.253906c0-4.140625-3.359375-7.5-7.5-7.5s-7.5 3.359375-7.5 7.5v2.253906c0 4.144531 3.359375 7.5 7.5 7.5zm0 0" data-original="#000000" class="active-path" style="fill:#000000"/><path d="m366.167969 274.746094c6.445312 7.308594 15.730469 11.5 25.472656 11.5 9.746094 0 19.03125-4.191406 25.472656-11.5 2.738281-3.109375 2.441407-7.847656-.664062-10.585938-3.109375-2.738281-7.847657-2.441406-10.585938.667969-3.597656 4.078125-8.78125 6.417969-14.222656 6.417969s-10.625-2.339844-14.222656-6.417969c-2.738281-3.109375-7.476563-3.40625-10.585938-.667969-3.105469 2.738282-3.402343 7.476563-.664062 10.585938zm0 0" data-original="#000000" class="active-path" style="fill:#000000"/></g> </svg>
