<svg id="Group_2354" data-name="Group 2354" xmlns="http://www.w3.org/2000/svg" width="30" height="30" viewBox="0 0 35 35.12">
  <path id="Path_228" data-name="Path 228" d="M11.608,8.528a2.277,2.277,0,0,0,.513-1.617,1.672,1.672,0,0,0-.654-1.5A3.832,3.832,0,0,0,9.4,4.977H7.642v4.1H9.647A2.724,2.724,0,0,0,11.608,8.528Z" transform="translate(-2.992 -1.904)" fill="#4bc3f4"/>
  <path id="Path_229" data-name="Path 229" d="M2.362,13.249h8.9a2.177,2.177,0,0,0,2.173-2.173v-8.9A2.171,2.171,0,0,0,11.266,0h-8.9A2.177,2.177,0,0,0,.19,2.173v8.9A2.182,2.182,0,0,0,2.362,13.249ZM3.06,1.5H6.576a5.293,5.293,0,0,1,3.4.892A3.393,3.393,0,0,1,11.045,5.15,3.272,3.272,0,0,1,9.959,7.879,5.39,5.39,0,0,1,6.6,8.745H4.792v3H3.06Z" transform="translate(-0.141)" fill="#4bc3f4"/>
  <path id="Path_230" data-name="Path 230" d="M33.015,26.885l-1.271-7.022a5.133,5.133,0,0,0-5.128-4.155h-13.6V16.88a2.744,2.744,0,0,1-.4,1.434h4.309v.759h-.96a.925.925,0,1,0,0,1.848h3.284a.925.925,0,1,0,0-1.848h-.96v-.759h8.324A2.45,2.45,0,0,1,29.065,20.3L30.2,26.572H5.02L6.155,20.3a2.1,2.1,0,0,1,.158-.523H3.493l-.016.078L2.206,26.885A3.4,3.4,0,0,0,.111,29.994v6.248a.665.665,0,0,0,.682.649h1.1v2.993a1.268,1.268,0,0,0,1.3,1.245H5.348a1.274,1.274,0,0,0,1.3-1.245V36.89H28.57v2.993a1.269,1.269,0,0,0,1.3,1.245h2.155a1.274,1.274,0,0,0,1.3-1.245V36.89h1.1a.665.665,0,0,0,.682-.649V29.993A3.414,3.414,0,0,0,33.015,26.885Zm-26.674,7a2.15,2.15,0,1,1,0-4.3,2.15,2.15,0,1,1,0,4.3Zm18.105-3.626L21.7,33.708a.429.429,0,0,1-.338.173H13.857a.429.429,0,0,1-.338-.173l-2.744-3.454a.417.417,0,0,1,.344-.67H24.1A.417.417,0,0,1,24.445,30.255Zm4.434,3.626a2.15,2.15,0,1,1,2.242-2.151A2.2,2.2,0,0,1,28.88,33.881Z" transform="translate(-0.111 -6.008)" fill="#4bc3f4"/>
</svg>
