<?xml version="1.0"?>
<svg xmlns="http://www.w3.org/2000/svg" id="_20-parking" height="512px" viewBox="0 0 192 192" width="512px" data-name="20-parking" class=""><g><path d="m96 0a80.091 80.091 0 0 0 -80 80c0 59.6 72.478 108.6 75.563 110.656a8.069 8.069 0 0 0 8.875 0c3.084-2.056 75.562-51.056 75.562-110.656a80.091 80.091 0 0 0 -80-80zm0 136a56 56 0 1 1 56-56 56.063 56.063 0 0 1 -56 56z" data-original="#000000" class="active-path" data-old_color="#000000" fill="#424856"/><path d="m100 56h-20a8 8 0 0 0 -8 8v48h16v-16h12a20 20 0 0 0 0-40zm0 24h-12v-8h12a4 4 0 0 1 0 8z" data-original="#000000" class="active-path" data-old_color="#000000" fill="#424856"/></g> </svg>
