<svg xmlns="http://www.w3.org/2000/svg" width="30" height="30" viewBox="0 0 42.811 36.495">
  <g id="Party_Hall_Approved" data-name="Party Hall Approved" transform="translate(-2991.505 2043.495)">
    <g id="Group_2386" data-name="Group 2386" transform="translate(3000.239 -2041)">
      <path id="Path_312" data-name="Path 312" d="M5.221,33.8a.565.565,0,0,0,0,.065v4.26H4V15.839a6.375,6.375,0,0,0,3,1.308ZM30.012,13.989a.585.585,0,0,0-.475-.2.609.609,0,0,0-.46.235,5.161,5.161,0,0,1-7.888.3.609.609,0,0,0-.9,0,5.167,5.167,0,0,1-3.812,1.681h0a5.093,5.093,0,0,1-3.806-1.682.609.609,0,0,0-.9,0A5.168,5.168,0,0,1,7.955,16.01h-.03a5.089,5.089,0,0,1-3.818-1.73L4,14.163v-.986H38.077v1a4.877,4.877,0,0,1-3.632,1.684,5.69,5.69,0,0,1-4.432-1.873ZM36.86,38.126v-4.26a.563.563,0,0,0,0-.064l-1.8-16.772a6.219,6.219,0,0,0,3.018-1.2v22.3Zm-15.821-34L36.184,11.96H5.892Z" transform="translate(-4 -4.126)" fill="#01ffc3"/>
    </g>
    <g id="noun_Party_1004875" transform="translate(3007.413 -2026.028)">
      <g id="Group_2388" data-name="Group 2388" transform="translate(0 0)">
        <path id="Path_313" data-name="Path 313" d="M71.754,26.1a.323.323,0,0,0,.227-.39.352.352,0,0,1,0-.174.369.369,0,0,1,.716.175.369.369,0,0,1-.445.271.319.319,0,0,0-.151.621,1,1,0,0,0,.238.029,1.01,1.01,0,0,0,.979-.769,1.007,1.007,0,1,0-1.953.012A.32.32,0,0,0,71.754,26.1Z" transform="translate(-57.085 -20.554)" fill="#01ffc3"/>
        <path id="Path_314" data-name="Path 314" d="M22.882,14.313a.319.319,0,0,0,.226-.093c.057-.057.146-.048.386.006a.857.857,0,0,0,1.144-1.144.742.742,0,0,1-.035-.339.122.122,0,0,1,.029-.048.133.133,0,0,1,.087-.037,1.115,1.115,0,0,1,.3.043A.971.971,0,0,0,26,12.536a.933.933,0,0,0,.175-.933l-.01-.045c-.054-.24-.063-.329-.006-.385s.146-.047.385.007c.051.011.108.023.167.034a.854.854,0,0,0,.811-.2.319.319,0,1,0-.452-.452c-.056.056-.146.048-.385-.007A.855.855,0,0,0,25.537,11.7a.73.73,0,0,1,.035.339.118.118,0,0,1-.029.047.132.132,0,0,1-.086.037,1.1,1.1,0,0,1-.3-.043.972.972,0,0,0-.978.165.935.935,0,0,0-.175.934c0,.015.006.03.01.044.054.24.062.33.006.386s-.146.048-.386-.006c-.051-.011-.108-.023-.167-.034a.858.858,0,0,0-.811.2.32.32,0,0,0,.226.546Z" transform="translate(-18.79 -9.446)" fill="#01ffc3"/>
        <path id="Path_315" data-name="Path 315" d="M88.059,15.618a.319.319,0,1,0,.639,0,1,1,0,0,1,.345-.748,1.609,1.609,0,0,0,0-2.344.982.982,0,0,1,0-1.5,1.608,1.608,0,0,0,0-2.343.981.981,0,0,1,0-1.494,1.612,1.612,0,0,0,.507-1.171.319.319,0,1,0-.639,0,1,1,0,0,1-.345.747,1.608,1.608,0,0,0,0,2.343.981.981,0,0,1,0,1.495,1.608,1.608,0,0,0,0,2.343.982.982,0,0,1,0,1.5A1.614,1.614,0,0,0,88.059,15.618Z" transform="translate(-70.22 -5.703)" fill="#01ffc3"/>
        <path id="Path_316" data-name="Path 316" d="M8.967,12.923a.205.205,0,0,0-.205-.205H8.289a.205.205,0,1,0,0,.41h.472A.205.205,0,0,0,8.967,12.923Z" transform="translate(-7.422 -11.211)" fill="#01ffc3"/>
        <path id="Path_317" data-name="Path 317" d="M15.17,13.129h.472a.205.205,0,0,0,0-.41H15.17a.205.205,0,1,0,0,.41Z" transform="translate(-12.825 -11.212)" fill="#01ffc3"/>
        <path id="Path_318" data-name="Path 318" d="M12.829,15.942a.205.205,0,0,0,.205-.205v-.472a.205.205,0,0,0-.411,0v.472A.206.206,0,0,0,12.829,15.942Z" transform="translate(-10.987 -13.05)" fill="#01ffc3"/>
        <path id="Path_319" data-name="Path 319" d="M12.829,9.061a.205.205,0,0,0,.205-.205V8.383a.205.205,0,0,0-.411,0v.472A.206.206,0,0,0,12.829,9.061Z" transform="translate(-10.987 -7.646)" fill="#01ffc3"/>
        <path id="Path_320" data-name="Path 320" d="M5.351,36.015a.205.205,0,0,0-.29.29l.334.334a.21.21,0,0,0,.29,0,.2.2,0,0,0,0-.29Z" transform="translate(-5.001 -29.458)" fill="#01ffc3"/>
        <path id="Path_321" data-name="Path 321" d="M10.259,41.505a.21.21,0,0,0,.29,0,.206.206,0,0,0,0-.29l-.334-.334a.205.205,0,1,0-.29.29Z" transform="translate(-8.82 -33.279)" fill="#01ffc3"/>
        <path id="Path_322" data-name="Path 322" d="M5.539,40.82a.2.2,0,0,0-.145.06l-.334.334a.2.2,0,0,0,0,.29.21.21,0,0,0,.29,0l.334-.334a.205.205,0,0,0-.145-.35Z" transform="translate(-5 -33.278)" fill="#01ffc3"/>
        <path id="Path_323" data-name="Path 323" d="M9.866,36.494a.2.2,0,0,0,.06.145.21.21,0,0,0,.29,0l.334-.334a.205.205,0,0,0-.29-.29l-.334.334A.2.2,0,0,0,9.866,36.494Z" transform="translate(-8.821 -29.458)" fill="#01ffc3"/>
        <path id="Path_324" data-name="Path 324" d="M54.8,11.922h.472a.205.205,0,1,0,0-.41H54.8a.205.205,0,0,0,0,.41Z" transform="translate(-43.939 -10.264)" fill="#01ffc3"/>
        <path id="Path_325" data-name="Path 325" d="M61.675,11.922h.472a.205.205,0,0,0,0-.41h-.472a.205.205,0,0,0,0,.41Z" transform="translate(-49.342 -10.264)" fill="#01ffc3"/>
        <path id="Path_326" data-name="Path 326" d="M59.334,13.853a.205.205,0,0,0-.205.205v.472a.205.205,0,1,0,.41,0v-.472A.205.205,0,0,0,59.334,13.853Z" transform="translate(-47.504 -12.103)" fill="#01ffc3"/>
        <path id="Path_327" data-name="Path 327" d="M59.334,7.855a.205.205,0,0,0,.205-.205V7.178a.205.205,0,0,0-.41,0V7.65A.205.205,0,0,0,59.334,7.855Z" transform="translate(-47.504 -6.7)" fill="#01ffc3"/>
        <path id="Path_328" data-name="Path 328" d="M40.873,38.038a2.115,2.115,0,1,0-2.115-2.115A2.117,2.117,0,0,0,40.873,38.038Z" transform="translate(-31.508 -27.772)" fill="#01ffc3"/>
        <path id="Path_329" data-name="Path 329" d="M40.242,55.977H38.963A1.825,1.825,0,0,0,37.14,57.8v6.4h0l4.923.008V57.8A1.824,1.824,0,0,0,40.242,55.977Z" transform="translate(-30.237 -45.18)" fill="#01ffc3"/>
        <path id="Path_330" data-name="Path 330" d="M66.787,47.366a1.728,1.728,0,1,0-1.728,1.728A1.73,1.73,0,0,0,66.787,47.366Z" transform="translate(-50.803 -37.061)" fill="#01ffc3"/>
        <path id="Path_331" data-name="Path 331" d="M21.234,47.107a1.728,1.728,0,1,0-1.728,1.728A1.73,1.73,0,0,0,21.234,47.107Z" transform="translate(-15.034 -36.858)" fill="#01ffc3"/>
        <g id="Group_2387" data-name="Group 2387" transform="translate(2.419 12.532)">
          <path id="Path_332" data-name="Path 332" d="M66.1,65.826a1.514,1.514,0,0,0-1.51-1.513H63.507a1.512,1.512,0,0,0-1.462,1.133v4.713H66.1V65.826Z" transform="translate(-52.212 -64.257)" fill="#01ffc3"/>
          <path id="Path_333" data-name="Path 333" d="M20.32,65.181a1.512,1.512,0,0,0-1.462-1.127H17.773a1.514,1.514,0,0,0-1.511,1.513v4.388H20.32Z" transform="translate(-16.262 -64.054)" fill="#01ffc3"/>
        </g>
      </g>
    </g>
    <g id="noun_tick_801900" transform="translate(2991.505 -2043.495)">
      <path id="Path_334" data-name="Path 334" d="M9.954,2a7.954,7.954,0,1,0,7.954,7.954A7.956,7.956,0,0,0,9.954,2Zm4.093,6.032-4.673,4.69a.844.844,0,0,1-.58.249.777.777,0,0,1-.58-.249L5.861,10.368A.832.832,0,0,1,7.038,9.192l1.757,1.757,4.093-4.093a.82.82,0,0,1,1.177,0A.835.835,0,0,1,14.047,8.032Z" transform="translate(-2 -2)" fill="#01ffc3"/>
    </g>
  </g>
</svg>
