<svg xmlns="http://www.w3.org/2000/svg" width="30" height="30" viewBox="0 0 44.423 36.8">
  <g id="Party_Hall_Unapproved" data-name="Party Hall Unapproved" transform="translate(-2992.577 2042.103)">
    <g id="Group_2386" data-name="Group 2386" transform="translate(3001.222 -2041)">
      <path id="Path_312" data-name="Path 312" d="M5.282,35.283a.593.593,0,0,0,0,.068v4.472H4v-23.4A6.694,6.694,0,0,0,7.155,17.8Zm26.029-20.8a.615.615,0,0,0-.5-.214.639.639,0,0,0-.483.247,5.418,5.418,0,0,1-8.282.319.639.639,0,0,0-.944,0,5.425,5.425,0,0,1-4,1.765h0a5.347,5.347,0,0,1-4-1.766.639.639,0,0,0-.944,0A5.426,5.426,0,0,1,8.153,16.6H8.121a5.343,5.343,0,0,1-4.008-1.816L4,14.664V13.629H39.778V14.68a5.121,5.121,0,0,1-3.814,1.768A5.974,5.974,0,0,1,31.31,14.482ZM38.5,39.823V35.351a.591.591,0,0,0,0-.068L36.609,17.674a6.529,6.529,0,0,0,3.168-1.261v23.41ZM21.889,4.126l15.9,8.225H5.987Z" transform="translate(-4 -4.126)" fill="#fc1058"/>
    </g>
    <g id="noun_Party_1004875" transform="translate(3008.755 -2025.28)">
      <g id="Group_2388" data-name="Group 2388" transform="translate(0 0)">
        <path id="Path_313" data-name="Path 313" d="M71.775,26.175a.339.339,0,0,0,.239-.41.369.369,0,0,1,0-.183.387.387,0,0,1,.752.183.387.387,0,0,1-.468.284.335.335,0,0,0-.159.652,1.049,1.049,0,0,0,.25.03,1.06,1.06,0,0,0,1.028-.808,1.058,1.058,0,1,0-2.051.012A.336.336,0,0,0,71.775,26.175Z" transform="translate(-56.374 -20.351)" fill="#fc1058"/>
        <path id="Path_314" data-name="Path 314" d="M22.9,14.5a.335.335,0,0,0,.237-.1c.06-.06.153-.051.406.006a.9.9,0,0,0,1.2-1.2.779.779,0,0,1-.037-.356.128.128,0,0,1,.031-.05.14.14,0,0,1,.092-.039,1.17,1.17,0,0,1,.313.046,1.019,1.019,0,0,0,1.027-.173.98.98,0,0,0,.184-.979l-.01-.047c-.057-.252-.066-.345-.007-.4s.153-.05.4.007c.053.012.113.025.175.036a.9.9,0,0,0,.851-.209.335.335,0,1,0-.474-.474c-.059.059-.153.05-.4-.007a1.02,1.02,0,0,0-1.026.173,1.019,1.019,0,0,0-.173,1.027.767.767,0,0,1,.037.356.124.124,0,0,1-.03.049.139.139,0,0,1-.091.039,1.153,1.153,0,0,1-.314-.046,1.02,1.02,0,0,0-1.027.173.982.982,0,0,0-.184.981c0,.015.007.032.01.046.057.252.065.346.006.405s-.153.051-.406-.006c-.053-.012-.113-.025-.175-.036a.9.9,0,0,0-.852.209.336.336,0,0,0,.237.573Z" transform="translate(-18.602 -9.394)" fill="#fc1058"/>
        <path id="Path_315" data-name="Path 315" d="M88.059,16.112a.335.335,0,0,0,.671,0,1.045,1.045,0,0,1,.363-.785,1.689,1.689,0,0,0,0-2.461,1.031,1.031,0,0,1,0-1.57,1.688,1.688,0,0,0,0-2.46,1.03,1.03,0,0,1,0-1.569,1.693,1.693,0,0,0,.532-1.23.335.335,0,1,0-.671,0,1.045,1.045,0,0,1-.363.784,1.688,1.688,0,0,0,0,2.46,1.03,1.03,0,0,1,0,1.569,1.688,1.688,0,0,0,0,2.46,1.031,1.031,0,0,1,0,1.57A1.694,1.694,0,0,0,88.059,16.112Z" transform="translate(-69.33 -5.703)" fill="#fc1058"/>
        <path id="Path_316" data-name="Path 316" d="M9.011,12.933a.215.215,0,0,0-.215-.215H8.3a.215.215,0,1,0,0,.431h.5A.215.215,0,0,0,9.011,12.933Z" transform="translate(-7.389 -11.136)" fill="#fc1058"/>
        <path id="Path_317" data-name="Path 317" d="M15.181,13.15h.5a.215.215,0,1,0,0-.431h-.5a.215.215,0,1,0,0,.431Z" transform="translate(-12.718 -11.137)" fill="#fc1058"/>
        <path id="Path_318" data-name="Path 318" d="M12.84,15.986a.216.216,0,0,0,.216-.215v-.5a.216.216,0,0,0-.431,0v.5A.216.216,0,0,0,12.84,15.986Z" transform="translate(-10.905 -12.949)" fill="#fc1058"/>
        <path id="Path_319" data-name="Path 319" d="M12.84,9.1a.216.216,0,0,0,.216-.215v-.5a.216.216,0,0,0-.431,0v.5A.216.216,0,0,0,12.84,9.1Z" transform="translate(-10.905 -7.62)" fill="#fc1058"/>
        <path id="Path_320" data-name="Path 320" d="M5.369,36.018a.215.215,0,0,0-.3.3l.351.351a.221.221,0,0,0,.3,0,.214.214,0,0,0,0-.3Z" transform="translate(-5.001 -29.133)" fill="#fc1058"/>
        <path id="Path_321" data-name="Path 321" d="M10.279,41.539a.22.22,0,0,0,.3,0,.216.216,0,0,0,0-.3l-.351-.351a.215.215,0,1,0-.3.3Z" transform="translate(-8.768 -32.902)" fill="#fc1058"/>
        <path id="Path_322" data-name="Path 322" d="M5.566,40.82a.213.213,0,0,0-.152.063l-.351.351a.214.214,0,0,0,0,.3.221.221,0,0,0,.3,0l.351-.351a.215.215,0,0,0-.152-.368Z" transform="translate(-5 -32.901)" fill="#fc1058"/>
        <path id="Path_323" data-name="Path 323" d="M9.866,36.521a.213.213,0,0,0,.063.152.22.22,0,0,0,.3,0l.351-.351a.215.215,0,0,0-.3-.3l-.351.351A.213.213,0,0,0,9.866,36.521Z" transform="translate(-8.769 -29.133)" fill="#fc1058"/>
        <path id="Path_324" data-name="Path 324" d="M54.805,11.943h.5a.215.215,0,1,0,0-.431h-.5a.215.215,0,0,0,0,.431Z" transform="translate(-43.408 -10.202)" fill="#fc1058"/>
        <path id="Path_325" data-name="Path 325" d="M61.685,11.943h.5a.215.215,0,0,0,0-.431h-.5a.215.215,0,0,0,0,.431Z" transform="translate(-48.736 -10.202)" fill="#fc1058"/>
        <path id="Path_326" data-name="Path 326" d="M59.345,13.853a.216.216,0,0,0-.216.215v.5a.215.215,0,1,0,.431,0v-.5A.215.215,0,0,0,59.345,13.853Z" transform="translate(-46.923 -12.015)" fill="#fc1058"/>
        <path id="Path_327" data-name="Path 327" d="M59.345,7.9a.215.215,0,0,0,.215-.215v-.5a.215.215,0,0,0-.431,0v.5A.216.216,0,0,0,59.345,7.9Z" transform="translate(-46.923 -6.687)" fill="#fc1058"/>
        <path id="Path_328" data-name="Path 328" d="M40.978,38.249a2.22,2.22,0,1,0-2.22-2.22A2.223,2.223,0,0,0,40.978,38.249Z" transform="translate(-31.146 -27.471)" fill="#fc1058"/>
        <path id="Path_329" data-name="Path 329" d="M40.4,55.977H39.054a1.917,1.917,0,0,0-1.914,1.914v6.717h0l5.169.009V57.891A1.915,1.915,0,0,0,40.4,55.977Z" transform="translate(-29.893 -44.641)" fill="#fc1058"/>
        <path id="Path_330" data-name="Path 330" d="M66.96,47.452a1.814,1.814,0,1,0-1.814,1.814A1.816,1.816,0,0,0,66.96,47.452Z" transform="translate(-50.178 -36.633)" fill="#fc1058"/>
        <path id="Path_331" data-name="Path 331" d="M21.407,47.193a1.814,1.814,0,1,0-1.814,1.814A1.816,1.816,0,0,0,21.407,47.193Z" transform="translate(-14.897 -36.432)" fill="#fc1058"/>
        <g id="Group_2387" data-name="Group 2387" transform="translate(2.539 13.158)">
          <path id="Path_332" data-name="Path 332" d="M66.305,65.9a1.589,1.589,0,0,0-1.586-1.588H63.58A1.587,1.587,0,0,0,62.045,65.5V70.45h4.261V65.9Z" transform="translate(-51.721 -64.255)" fill="#fc1058"/>
          <path id="Path_333" data-name="Path 333" d="M20.523,65.237a1.588,1.588,0,0,0-1.535-1.183H17.848a1.589,1.589,0,0,0-1.586,1.588V70.25h4.261Z" transform="translate(-16.262 -64.054)" fill="#fc1058"/>
        </g>
      </g>
    </g>
    <g id="noun_Close_1975539" transform="translate(2992.577 -2042.103)">
      <path id="Path_335" data-name="Path 335" d="M8.069,14.089a7.045,7.045,0,1,1,7.045-7.045A7.045,7.045,0,0,1,8.069,14.089Zm0-8.112L5.756,3.665,4.689,4.732,7,7.045,4.689,9.358l1.067,1.067L8.069,8.112l2.313,2.313,1.067-1.067L9.136,7.045l2.313-2.313L10.382,3.665,8.069,5.977Z" transform="translate(-1.024 0)" fill="#fc1058"/>
    </g>
  </g>
</svg>
