<svg xmlns="http://www.w3.org/2000/svg" width="30" height="30" viewBox="0 0 36.498 30.206">
  <g id="penalty" transform="translate(-3149.516 2188)">
    <g id="noun_Security_100410" transform="translate(3149.516 -2188)">
      <path id="Path_265" data-name="Path 265" d="M89.656,68.183A1.58,1.58,0,0,0,88.3,66.831l.521-1.193a22.548,22.548,0,0,0-14.182.032l.473,1.161a1.58,1.58,0,0,0-1.357,1.351,5.063,5.063,0,0,0,.68,3.688,2.181,2.181,0,0,0,1.332,1.014,6.328,6.328,0,0,0,11.879,0,2.184,2.184,0,0,0,1.332-1.015,5.064,5.064,0,0,0,.68-3.688ZM88.44,70a3.508,3.508,0,0,1-.485,1.193c-.216.327-.435.48-.53.48h0l-.532-.159-.21.515a5.169,5.169,0,0,1-9.954,0l-.222-.512-.532.158c-.081,0-.3-.153-.519-.482A3.5,3.5,0,0,1,74.97,70a3.406,3.406,0,0,1-.031-1.517.775.775,0,0,1,.226-.436.334.334,0,0,1,.147.066l.79.52.151-.933q.014-.089.03-.176a11.8,11.8,0,0,0,10.844,0c.011.059.021.117.031.177q.075.467.151.933l.789-.52a.387.387,0,0,1,.142-.067.749.749,0,0,1,.231.438A3.4,3.4,0,0,1,88.44,70Z" transform="translate(-69.366 -58.55)" fill="#008cff"/>
      <path id="Path_266" data-name="Path 266" d="M169.555,169.588l-4.512-4.512-2.468,12.339h9.871v-.847A9.869,9.869,0,0,0,169.555,169.588Zm-1.128,3.546a4.083,4.083,0,0,1-2.62,0c-.351-.13-.893-.4-.893-.885s.541-.755.892-.885a4.082,4.082,0,0,1,2.62,0c.351.13.893.4.893.885S168.778,173,168.426,173.134Z" transform="translate(-147.768 -147.209)" fill="#008cff"/>
      <path id="Path_267" data-name="Path 267" d="M124.915,125.3v.452a8.032,8.032,0,0,0-2.354-.3.937.937,0,0,1-.347-.675.936.936,0,0,1-.347.675,8.037,8.037,0,0,0-2.354.3V125.3a.675.675,0,0,1,.512-.655l1.371-.343a3.242,3.242,0,0,1,1.638,0l1.371.343A.675.675,0,0,1,124.915,125.3Z" transform="translate(-109.804 -111.172)" fill="#008cff"/>
      <path id="Path_268" data-name="Path 268" d="M76.784,15.269a7.029,7.029,0,0,0,2.753,1.817c.256.1.515.2.777.283q.206.068.414.129l.106.031c.066.019-.047.05-.073.073l-.163.151a8.9,8.9,0,0,0-1.083,1.206,6.186,6.186,0,0,0-.462.724c-.064.118-.123.239-.177.362-.022.049-.056,0-.085-.005l-.1-.032-.2-.063q-.789-.25-1.593-.444a23.764,23.764,0,0,0-3.281-.555A23.519,23.519,0,0,0,67,19.224a23.787,23.787,0,0,0-3.22.826c-.055.018-.1.04-.134-.03s-.048-.111-.074-.166c-.053-.113-.11-.223-.17-.332a6.342,6.342,0,0,0-.428-.664,9.209,9.209,0,0,0-1.208-1.327,7.909,7.909,0,0,0,4.057-2.262.773.773,0,0,1,.734-.284,7.382,7.382,0,0,0,4.354-.7.774.774,0,0,1,.789,0,7.381,7.381,0,0,0,4.354.7A.772.772,0,0,1,76.784,15.269Z" transform="translate(-58.891 -14.173)" fill="#008cff"/>
      <path id="Path_269" data-name="Path 269" d="M120.889,181.092h4.936q-.814-4.886-1.629-9.772a2.326,2.326,0,0,0,.651-.641,1.364,1.364,0,0,0,.221-.519.472.472,0,0,0-.03-.342c-.262-.476-1.27-.57-1.682-.57s-1.42.094-1.681.57a.474.474,0,0,0-.03.342,1.36,1.36,0,0,0,.221.519,2.331,2.331,0,0,0,.652.641Z" transform="translate(-111.018 -150.886)" fill="#008cff"/>
      <path id="Path_270" data-name="Path 270" d="M44.92,165.075l-4.512,4.512a9.872,9.872,0,0,0-2.891,6.98v.847h9.871Q46.154,171.245,44.92,165.075Z" transform="translate(-37.516 -147.208)" fill="#008cff"/>
    </g>
    <g id="Group_2363" data-name="Group 2363" transform="translate(3175.406 -2166.04)">
      <path id="Path_271" data-name="Path 271" d="M6.667,13.405c0,.487-1.115.882-2.49.882s-2.489-.395-2.489-.882,1.115-.882,2.489-.882,2.49.395,2.49.882" transform="translate(-1.688 -12.523)" fill="#008cff"/>
      <path id="Path_272" data-name="Path 272" d="M47.1,27.472" transform="translate(-42.12 -25.833)" fill="#008cff"/>
      <path id="Path_273" data-name="Path 273" d="M47.1,35.886" transform="translate(-42.12 -33.324)" fill="#008cff"/>
      <path id="Path_274" data-name="Path 274" d="M6.667,26.261c0,.487-1.115.882-2.49.882s-2.489-.395-2.489-.882v.923c0,.487,1.115.882,2.489.882s2.49-.395,2.49-.882Z" transform="translate(-1.688 -24.755)" fill="#008cff"/>
      <path id="Path_275" data-name="Path 275" d="M6.667,41.146c0,.487-1.115.882-2.49.882s-2.489-.395-2.489-.882v.923c0,.487,1.115.882,2.489.882s2.49-.395,2.49-.882Z" transform="translate(-1.688 -38.008)" fill="#008cff"/>
      <path id="Path_276" data-name="Path 276" d="M58.01,43.391c0,.487-1.115.882-2.49.882s-2.489-.395-2.489-.882,1.115-.882,2.489-.882,2.49.395,2.49.882" transform="translate(-47.402 -39.221)" fill="#008cff"/>
      <path id="Path_277" data-name="Path 277" d="M58.01,56.247c0,.487-1.115.882-2.49.882s-2.489-.395-2.489-.882v.922c0,.487,1.115.882,2.489.882s2.49-.395,2.49-.882Z" transform="translate(-47.402 -51.453)" fill="#008cff"/>
      <path id="Path_278" data-name="Path 278" d="M58.01,71.131c0,.487-1.115.882-2.49.882s-2.489-.395-2.489-.882v.922c0,.487,1.115.882,2.489.882s2.49-.395,2.49-.882Z" transform="translate(-47.402 -64.705)" fill="#008cff"/>
      <path id="Path_279" data-name="Path 279" d="M6.667,55.814c0,.487-1.115.882-2.49.882s-2.489-.4-2.489-.882v.923c0,.487,1.115.882,2.489.882s2.49-.395,2.49-.882Z" transform="translate(-1.688 -51.067)" fill="#008cff"/>
      <path id="Path_280" data-name="Path 280" d="M6.667,70.916c0,.487-1.115.882-2.49.882s-2.489-.395-2.489-.882v.922c0,.487,1.115.882,2.489.882s2.49-.395,2.49-.882Z" transform="translate(-1.688 -64.514)" fill="#008cff"/>
    </g>
  </g>
</svg>
