<svg xmlns="http://www.w3.org/2000/svg" width="30" height="30" viewBox="0 0 39.087 31.25">
  <g id="Pets" transform="translate(-2959.111 2310)">
    <g id="Group_2358" data-name="Group 2358" transform="translate(2962.82 -2301.986)">
      <path id="Path_235" data-name="Path 235" d="M56.533,39.911a19.922,19.922,0,0,1-4.759-2.076,8.678,8.678,0,0,0-.319-2.315c-.178-.893.06-1.4.536-2.68.086-.23.474-2.779,1.25-2.858s1.787,2.5,1.787,2.5,2.2,0,2.467.983c.317,1.181,1.535,1.823,1.582,1.995.183.665-.139,2.47-1.2,2.745C57.233,38.373,56.765,39.213,56.533,39.911Z" transform="translate(-43.186 -29.979)" fill="#ffaa01"/>
      <path id="Path_236" data-name="Path 236" d="M65.7,50.11a1.5,1.5,0,0,0,.255-.312,31.086,31.086,0,0,0,4.857,2.218c-.583,2.749-.25,9.689-.267,9.986-.024.441.263.715.05,1.066-.325.538-.964.588-1.718.452s-6.37,1.418-9.889-.053C54.673,60.868,61.874,51.612,65.7,50.11Z" transform="translate(-57.654 -40.992)" fill="#ffaa01"/>
    </g>
    <g id="Group_2359" data-name="Group 2359" transform="translate(2977.055 -2310)">
      <g id="Group_2357" data-name="Group 2357" transform="translate(3.883)">
        <path id="Path_233" data-name="Path 233" d="M24.863,39.384c-.93-.3-4.914-1.6-6.89-2.265-1,2.585-6.3,16.574-4.473,18.98,2.012,2.653,9.238-.457,11.342,0s1.845-1,1.845-1Z" transform="translate(-13.12 -25.933)" fill="#ffaa01"/>
        <path id="Path_234" data-name="Path 234" d="M36.67,17.537c-.552-.754-3.691-.594-3.691-.594a7.321,7.321,0,0,0-1.31-2.026,5.93,5.93,0,0,0-2.275-.3s.156-2.475-.6-2.66c-1.441-.352-3.359,7.335-3.962,9.923a39.411,39.411,0,0,0,6.376,2.117l-.017-.146s.06-1.25.894-1.548c.561-.2,3.335-.77,4.109-1.548C36.767,20.177,37.152,18.193,36.67,17.537Z" transform="translate(-19.629 -11.943)" fill="#ffaa01"/>
      </g>
      <path id="Path_237" data-name="Path 237" d="M8.46,69.993c-3-2.306-3.026-7.613-3.793-6.01-.717,1.5-.016,5.117,1.324,6.705,1.231,1.459,3.769,1.389,3.87.475" transform="translate(-4.382 -40.696)" fill="#ffaa01"/>
    </g>
    <path id="Path_238" data-name="Path 238" d="M87.724,61.251c-1.178.742-3.319-2.418-1.544-3.483,1.118-.67,1.241-.874,1.557-1.395.759-1.248-.235-4.736-2.149-5.186-1.423-.333-1.515.973-.734,1.4,1.856,1.1,2.011,2.955.748,3.858a3.154,3.154,0,0,0-1.528,2.012c-.439,1.6.879,4.158,3.413,4.961,0,0,1.409.317,1.669-.26" transform="translate(2875.12 -2343.721)" fill="#ffaa01"/>
  </g>
</svg>
