<?xml version="1.0" encoding="iso-8859-1"?>
<!-- Generator: Adobe Illustrator 19.0.0, SVG Export Plug-In . SVG Version: 6.00 Build 0)  -->
<svg version="1.1" id="Capa_1" xmlns="http://www.w3.org/2000/svg" xmlns:xlink="http://www.w3.org/1999/xlink" x="0px" y="0px"
	 viewBox="0 0 429.3 429.3" style="enable-background:new 0 0 429.3 429.3;" xml:space="preserve">
<g>
	<g>
		<path d="M336.45,23.3c-1.8,2.1-4.4,3.3-7.2,3.3s-5.5-1.2-7.4-3.3L300.55,0l-21.3,23.2c-0.2,0.2-0.4,0.4-0.6,0.6
			c-4,3.7-10.4,3.5-14.1-0.6L243.25,0l-21.3,23.2c-0.2,0.2-0.4,0.4-0.6,0.6c-4,3.7-10.4,3.5-14.1-0.6L185.95,0l-21.3,23.2
			c-0.2,0.2-0.4,0.4-0.6,0.6c-4,3.7-10.4,3.5-14.1-0.6L128.65,0l-21.3,23.3c-1.9,2.1-4.6,3.3-7.4,3.3s-5.4-1.2-7.2-3.3L81.65,11
			v407.4l11.2-12.4c1.8-2.1,4.4-3.3,7.2-3.3c2.8,0,5.5,1.2,7.4,3.3l21.3,23.3l21.3-23.2c0.2-0.2,0.4-0.4,0.6-0.6
			c4-3.7,10.4-3.5,14.1,0.6l21.3,23.2l21.3-23.2c0.2-0.2,0.4-0.4,0.6-0.6c4-3.7,10.4-3.5,14.1,0.6l21.3,23.2l21.3-23.2
			c0.2-0.2,0.4-0.4,0.6-0.6c4-3.7,10.4-3.5,14.1,0.6l21.3,23.2l21.3-23.3c1.9-2.1,4.6-3.3,7.4-3.3s5.4,1.2,7.2,3.3l11.1,12.3V10.9
			L336.45,23.3z M184.85,120.7c-5.5,0-10-4.5-10-10s4.5-10,10-10h29c-2.8-3-7.1-6-11.9-6h-17c-5.5,0-10-4.5-10-10s4.5-10,10-10h59.5
			c5.5,0,10,4.5,10,10s-4.5,10-10,10h-10.5c0.9,1.9,1.6,4,2.2,6h8.4c5.5,0,10,4.5,10,10s-4.5,10-10,10h-8.4c-1.6,5.8-4.7,11-9,15.2
			c-4.9,4.8-11.1,8.2-17.8,9.6l25.1,23.7c4,3.8,4.2,10.2,0.4,14.2s-10.2,4.2-14.2,0.4l-42.7-40.2c-2-1.9-3.2-4.6-3.1-7.4
			c0.1-5.4,4.6-9.6,10-9.5h17c4.2-0.1,8.1-1.8,11-4.8c0.4-0.3,0.7-1.2,0.9-1.2H184.85z M170.85,258.7h87.6c5.5,0,10,4.5,10,10
			s-4.5,10-10,10h-87.6c-5.5,0-10-4.5-10-10S165.35,258.7,170.85,258.7z M300.15,361.7h-171c-5.5,0-10-4.5-10-10s4.5-10,10-10h171
			c5.5,0,10,4.5,10,10S305.65,361.7,300.15,361.7z M300.15,319.7h-171c-5.5,0-10-4.5-10-10s4.5-10,10-10h171c5.5,0,10,4.5,10,10
			S305.65,319.7,300.15,319.7z"/>
	</g>
</g>
<g>
	<g>
		<path d="M347.65,418.3L347.65,418.3L347.65,418.3z"/>
	</g>
</g>
<g>
</g>
<g>
</g>
<g>
</g>
<g>
</g>
<g>
</g>
<g>
</g>
<g>
</g>
<g>
</g>
<g>
</g>
<g>
</g>
<g>
</g>
<g>
</g>
<g>
</g>
<g>
</g>
<g>
</g>
</svg>
