<svg xmlns="http://www.w3.org/2000/svg" width="30" height="30" viewBox="0 0 34.333 28.683">
  <g id="Rental_Agreement" data-name="Rental Agreement" transform="translate(-3248 2131.667)">
    <g id="noun_Document_1319234" transform="translate(3272 -2182.992)">
      <g id="Group_2366" data-name="Group 2366" transform="translate(-31 -909.85)">
        <path id="Path_282" data-name="Path 282" d="M41.333,961.354v28.5H28.279v-6.864a.348.348,0,0,0-.348-.348H21.578V961.354Zm-2.628,3.508H24.793a.348.348,0,1,0,0,.7H38.64a.349.349,0,1,0,.065-.7Zm0,3.736H24.793a.348.348,0,1,0,0,.7H38.64a.349.349,0,1,0,.065-.7Zm0,3.736H24.793a.348.348,0,1,0,0,.7H38.64a.349.349,0,1,0,.065-.7Zm0,3.736H24.793a.348.348,0,1,0,0,.7H38.64a.349.349,0,0,0,.065-.7Zm0,3.736H30.766a.348.348,0,1,0,0,.7H38.64a.349.349,0,1,0,.065-.7Z" fill="#fc1058"/>
        <path id="Path_283" data-name="Path 283" d="M27.584,1024.62H21.578v.109l5.962,6.408h.043Z" transform="translate(0 -41.279)" fill="#fc1058"/>
      </g>
    </g>
    <g id="Group_2368" data-name="Group 2368" transform="translate(3246 -2133.666)">
      <path id="Path_289" data-name="Path 289" d="M6.982,4.726,5.715,2.532l-1.1.633L5.885,5.359ZM8.333,2A6.33,6.33,0,1,1,2.848,5.166h0L8.333,8.333Z" transform="translate(0 0)" fill="#fc1058" fill-rule="evenodd"/>
    </g>
  </g>
</svg>
