<svg xmlns="http://www.w3.org/2000/svg" width="30" height="30" viewBox="0 0 28.139 26.358">
  <g id="Security_Deposit" data-name="Security Deposit" transform="translate(-3159.3 2129)">
    <path id="Path_284" data-name="Path 284" d="M20.146,22.521a.036.036,0,0,1,0-.057,3.516,3.516,0,0,1,4.208,0,.036.036,0,0,1,0,.057,3.545,3.545,0,0,1-4.208,0Zm4.245.686c-.02.017-.041.032-.063.049a2.549,2.549,0,0,1-.638.327,4.061,4.061,0,0,1-2.707,0,2.549,2.549,0,0,1-.638-.327,1.374,1.374,0,0,1-.236-.218v.9l.024.015a3.55,3.55,0,0,0,.85.372,4.8,4.8,0,0,0,1.348.186,4.713,4.713,0,0,0,.512-.027.243.243,0,0,0,.045,0,.445.445,0,0,1,.152-.217h.008a3.652,3.652,0,0,1,1.342-.657Zm-1.542,3.369a3.948,3.948,0,0,1-.512.034,3.154,3.154,0,0,1-2.227-.777v.576a.559.559,0,0,0,.317.5,4.453,4.453,0,0,0,1.9.4,4.549,4.549,0,0,0,.521-.028,1.22,1.22,0,0,1-.01-.14v-.559Zm0-.691v-.707a3.948,3.948,0,0,1-.512.034,3.582,3.582,0,0,1-1.991-.559,1.374,1.374,0,0,1-.236-.218v.9a4.21,4.21,0,0,0,2.222.575A5.1,5.1,0,0,0,22.849,25.886Zm.895-1.574a3.1,3.1,0,0,0-.419.28H23.31a.035.035,0,0,0,0,.056c.063.049.127.1.194.14a3.061,3.061,0,0,0,.271.159,3.33,3.33,0,0,0,.621.25,3.66,3.66,0,0,0,1.018.14,3.42,3.42,0,0,0,2.1-.7.035.035,0,0,0,0-.056,3.411,3.411,0,0,0-2.1-.7,3.614,3.614,0,0,0-1.049.152A3.4,3.4,0,0,0,23.744,24.311Zm3.105,1.4a4.061,4.061,0,0,1-2.707,0c-.067-.024-.131-.05-.194-.077a2.307,2.307,0,0,1-.443-.25,1.375,1.375,0,0,1-.236-.218v.9l.024.015q.109.067.226.126t.28.126a3.606,3.606,0,0,0,.347.12c.08.024.162.045.247.064a4.881,4.881,0,0,0,1.106.123,4.8,4.8,0,0,0,1.353-.187,3.562,3.562,0,0,0,.7-.287v-.839c-.02.017-.041.032-.063.049A2.549,2.549,0,0,1,26.849,25.71Zm-2.9,1.325a1.861,1.861,0,0,1-.679-.468v.572a.534.534,0,0,0,0,.082.559.559,0,0,0,.312.419,4.453,4.453,0,0,0,1.91.4,4.6,4.6,0,0,0,1.7-.309.559.559,0,0,0,.351-.52v-.475a3.492,3.492,0,0,1-2.048.608A4.011,4.011,0,0,1,23.948,27.035Zm4.675-7.162a.21.21,0,0,0-.3,0l-1.9,1.9v-.814a.21.21,0,0,0-.419,0v1.323a.208.208,0,0,0,.015.077h0a.21.21,0,0,0,.115.115h0a.208.208,0,0,0,.077.015h1.323a.21.21,0,1,0,0-.419h-.814l1.9-1.9A.21.21,0,0,0,28.623,19.873Z" transform="translate(3150.95 -2144.656)" fill="#02ccfc" stroke="#000" stroke-miterlimit="10" stroke-width="0.01"/>
    <g id="noun_Broken_Pipe_1929108" data-name="noun_Broken Pipe_1929108" transform="translate(3159.3 -2129)">
      <g id="Group_2367" data-name="Group 2367" transform="translate(0 0)">
        <path id="Path_285" data-name="Path 285" d="M15.132,29.865l1.959-.356V27.847l-2.2.95-1.84-.653L11.57,29.153,8.543,27.847l2.671.356,1.781-1.187,1.484.712,2.612-.237V26.6H1.3v4.749H14.064Z" transform="translate(-1.3 -12.471)" fill="#02ccfc"/>
        <path id="Path_286" data-name="Path 286" d="M26.6,32.3l-1.662.89-.237.475h1.9Z" transform="translate(-10.808 -14.787)" fill="#02ccfc"/>
        <rect id="Rectangle_136" data-name="Rectangle 136" width="4.749" height="7.539" transform="translate(22.618)" fill="#02ccfc"/>
        <path id="Path_287" data-name="Path 287" d="M34.768,22.268H29.9v6.293h6.115a5.042,5.042,0,0,0,5.046-5.046V17.4H34.768Z" transform="translate(-12.921 -8.733)" fill="#02ccfc"/>
        <path id="Path_288" data-name="Path 288" d="M25.288,42.649a1.771,1.771,0,0,0,1.662-2.375L25.288,36l-1.662,4.274A1.771,1.771,0,0,0,25.288,42.649Zm-.059-4.512.95,2.553a1.073,1.073,0,0,1-.534,1.365c-.178.119-.416-.059-.416-.3s.3-.356.3-.95Z" transform="translate(-10.328 -16.291)" fill="#02ccfc"/>
      </g>
    </g>
  </g>
</svg>
