<?xml version="1.0"?>
<svg xmlns="http://www.w3.org/2000/svg" id="Capa_1" enable-background="new 0 0 510 510" height="512px" viewBox="0 0 510 510" width="512px"><g><path d="m356.396 156.39h-202.798c-8.097 0-14.73 6.427-14.979 14.514l-7.914 256.357h109.311v-99.992c-27.228-6.906-47.206-32.186-45.887-61.805 1.391-31.22 26.718-56.593 57.956-58.057 34.92-1.636 63.852 26.281 63.852 60.825 0 28.415-19.572 52.347-45.948 59.036v99.992h109.311l-7.924-256.357c-.251-8.086-6.884-14.513-14.98-14.513z" data-original="#000000" class="active-path" data-old_color="#000000" fill="#F44A56"/><path d="m285.963 268.233c0-17.063-13.887-30.941-30.962-30.941s-30.962 13.878-30.962 30.941c0 17.098 13.928 30.941 30.962 30.941 17.026 0 30.962-13.834 30.962-30.941z" data-original="#000000" class="active-path" data-old_color="#000000" fill="#F44A56"/><path d="m401.828 457.213c-7.12 0-285.137 0-293.653 0-14.638 0-26.706 11.909-26.706 26.688v16.115c0 5.514 4.473 9.984 9.991 9.984h327.083c5.518 0 9.991-4.47 9.991-9.984v-16.115c0-14.796-12.086-26.688-26.706-26.688z" data-original="#000000" class="active-path" data-old_color="#000000" fill="#F44A56"/><path d="m507.267 109.066c-4.764-6.763-14.111-8.387-20.881-3.626l-47.354 33.311c-8.852 6.226-8.368 19.527.922 25.091l17.616 10.553-28.513 20.057c-6.768 4.761-8.392 14.103-3.629 20.866 4.764 6.763 14.113 8.387 20.881 3.626l47.354-33.311c8.852-6.226 8.368-19.527-.922-25.091l-17.616-10.553 28.513-20.057c6.769-4.76 8.393-14.102 3.629-20.866z" data-original="#000000" class="active-path" data-old_color="#000000" fill="#F44A56"/><path d="m92.16 197.621-18.16-47.076c-3.893-10.093-16.922-12.857-24.58-5.203l-10.573 10.566-9.872-25.592c-2.977-7.718-11.652-11.562-19.374-8.587-7.722 2.975-11.57 11.643-8.593 19.361l18.16 47.077c3.895 10.095 16.924 12.858 24.58 5.203l10.573-10.566 9.872 25.591c2.977 7.717 11.65 11.562 19.374 8.587 7.723-2.975 11.57-11.644 8.593-19.361z" data-original="#000000" class="active-path" data-old_color="#000000" fill="#F44A56"/><path d="m325.123 71.912 17.391 4.623-19.737 24.521c-5.188 6.445-4.165 15.871 2.284 21.056 6.454 5.188 15.886 4.16 21.071-2.283l34.179-42.462c6.786-8.429 2.642-21.078-7.825-23.86l-17.391-4.623 19.737-24.521c5.188-6.445 4.165-15.871-2.284-21.056-6.45-5.185-15.882-4.163-21.071 2.283l-34.179 42.462c-6.786 8.43-2.642 21.078 7.825 23.86z" data-original="#000000" class="active-path" data-old_color="#000000" fill="#F44A56"/><path d="m130.989 76.396c3.895 10.096 16.923 12.858 24.581 5.203l14.421-14.412 12.474 32.335c2.977 7.717 11.65 11.562 19.374 8.587 7.723-2.975 11.57-11.644 8.593-19.361l-20.762-53.82c-3.894-10.097-16.924-12.856-24.58-5.203l-14.421 14.412-12.474-32.336c-2.977-7.718-11.652-11.56-19.374-8.587-7.722 2.975-11.57 11.644-8.593 19.361z" data-original="#000000" class="active-path" data-old_color="#000000" fill="#F44A56"/></g> </svg>
