<?xml version="1.0"?>
<svg xmlns="http://www.w3.org/2000/svg" xmlns:xlink="http://www.w3.org/1999/xlink" version="1.1" id="Capa_1" x="0px" y="0px" viewBox="0 0 512 512" style="enable-background:new 0 0 512 512;" xml:space="preserve" width="512px" height="512px" class=""><g><path style="fill:#ED5151" d="M415.75,426c-7.035,0-126.079,0-217,0c-11.05,0-20,8.95-20,20v40h257v-40  C435.75,434.95,426.8,426,415.75,426z" data-original="#57555C" class="active-path" data-old_color="#57555C"/><path style="fill:#ED5151;" d="M302.37,186h-10.24c-29,0-53.85,20.74-59.03,49.27L199.07,426h196.36l-34.02-190.73  C356.22,206.74,331.37,186,302.37,186z" data-original="#ED5151"/><path d="M336,266c0-5.52-4.48-10-10-10s-10,4.48-10,10s4.48,10,10,10S336,271.52,336,266z" data-original="#000000" class="" style="fill:#000000"/><path d="M416,416h-11.946l-32.555-182.521C365.439,200.174,336.472,176,302.62,176h-93.24c-33.858,0-62.822,24.175-68.875,57.513  L107.946,416H96c-16.542,0-30,13.458-30,30v40c0,5.522,4.477,10,10,10h360c5.522,0,10-4.478,10-10v-40  C446,429.458,432.542,416,416,416z M160.189,237.056C164.508,213.267,185.196,196,209.38,196h93.24  c24.181,0,44.873,17.268,49.195,41.025L383.738,416H128.262L160.189,237.056z M426,476H86v-30c0-5.514,4.486-10,10-10  c22.473,0,306.383,0,320,0c5.514,0,10,4.486,10,10V476z" data-original="#000000" class="" style="fill:#000000"/><path d="M358.239,384.213l-14.67-80.75c-0.987-5.436-6.202-9.044-11.626-8.052c-5.435,0.987-9.039,6.192-8.052,11.626l14.67,80.75  c0.994,5.476,6.242,9.036,11.626,8.052C355.622,394.852,359.227,389.646,358.239,384.213z" data-original="#000000" class="" style="fill:#000000"/><path d="M502,256h-86c-5.522,0-10,4.478-10,10s4.478,10,10,10h86c5.522,0,10-4.478,10-10S507.522,256,502,256z" data-original="#000000" class="" style="fill:#000000"/><path d="M0,266c0,5.522,4.477,10,10,10h86c5.523,0,10-4.478,10-10s-4.477-10-10-10H10C4.477,256,0,260.478,0,266z" data-original="#000000" class="" style="fill:#000000"/><path d="M432.781,89.219c-3.906-3.904-10.236-3.904-14.143,0l-56.57,56.57c-3.905,3.905-3.905,10.237,0,14.143  c3.907,3.905,10.236,3.904,14.143,0l56.57-56.57C436.687,99.456,436.687,93.124,432.781,89.219z" data-original="#000000" class="" style="fill:#000000"/><path d="M79.219,89.219c-3.905,3.905-3.905,10.237,0,14.143l56.57,56.57c3.907,3.905,10.237,3.905,14.143,0  c3.905-3.905,3.905-10.237,0-14.143l-56.57-56.57C89.456,85.315,83.125,85.314,79.219,89.219z" data-original="#000000" class="" style="fill:#000000"/><path d="M266,106V26c0-5.522-4.478-10-10-10s-10,4.478-10,10v80c0,5.522,4.478,10,10,10S266,111.522,266,106z" data-original="#000000" class="" style="fill:#000000"/></g> </svg>
