<?xml version="1.0"?>
<svg xmlns="http://www.w3.org/2000/svg" id="Capa_1" enable-background="new 0 0 512 512" height="512px" viewBox="0 0 512 512" width="512px"><g><path d="m497 181h-39.458c-1.822-4.888-3.826-9.719-6.005-14.472l27.908-27.908c5.858-5.857 5.858-15.355 0-21.213l-84.853-84.853c-5.857-5.857-15.355-5.857-21.213 0l-27.908 27.907c-4.752-2.178-9.584-4.183-14.472-6.005v-39.456c0-8.284-6.716-15-15-15h-119.999c-8.284 0-15 6.716-15 15v39.457c-4.887 1.822-9.719 3.827-14.472 6.005l-27.908-27.907c-5.857-5.857-15.355-5.857-21.213 0l-84.853 84.853c-5.858 5.857-5.858 15.355 0 21.213l27.908 27.908c-2.179 4.753-4.183 9.584-6.005 14.472h-39.457c-8.284 0-15 6.716-15 15v120c0 8.284 6.716 15 15 15h39.458c1.822 4.888 3.826 9.719 6.005 14.472l-27.908 27.907c-5.858 5.857-5.858 15.355 0 21.213l84.853 84.853c5.857 5.857 15.355 5.857 21.213 0l27.908-27.907c4.753 2.178 9.585 4.183 14.472 6.005v39.456c0 8.284 6.716 15 15 15h120c8.284 0 15-6.716 15-15v-39.457c4.887-1.822 9.719-3.827 14.472-6.005l27.908 27.907c5.857 5.857 15.355 5.857 21.213 0l84.853-84.853c5.858-5.857 5.858-15.355 0-21.213l-27.908-27.908c2.179-4.753 4.183-9.584 6.005-14.472h39.456c8.284 0 15-6.716 15-15v-119.999c0-8.284-6.716-15-15-15zm-15 120h-35.162c-6.553 0-12.347 4.253-14.311 10.505-3.237 10.304-7.431 20.414-12.467 30.05-3.037 5.81-1.948 12.918 2.688 17.554l24.877 24.878-63.639 63.64-24.878-24.878c-4.636-4.636-11.746-5.724-17.554-2.688-9.636 5.036-19.746 9.23-30.049 12.467-6.251 1.964-10.505 7.758-10.505 14.311v35.161h-90v-35.162c0-6.553-4.253-12.347-10.505-14.311-10.302-3.236-20.412-7.431-30.049-12.467-5.809-3.036-12.917-1.948-17.554 2.688l-24.878 24.878-63.639-63.64 24.877-24.878c4.636-4.635 5.724-11.744 2.688-17.554-5.037-9.638-9.231-19.748-12.467-30.05-1.964-6.251-7.758-10.504-14.311-10.504h-35.162v-90h35.162c6.553 0 12.347-4.253 14.311-10.505 3.236-10.302 7.431-20.412 12.467-30.05 3.036-5.81 1.948-12.919-2.688-17.554l-24.877-24.878 63.639-63.64 24.878 24.878c4.635 4.636 11.745 5.725 17.554 2.688 9.637-5.036 19.747-9.23 30.049-12.467 6.252-1.963 10.505-7.757 10.505-14.31v-35.162h90v35.162c0 6.553 4.253 12.347 10.505 14.311 10.303 3.236 20.413 7.431 30.049 12.467 5.811 3.038 12.918 1.949 17.554-2.688l24.878-24.878 63.639 63.64-24.877 24.878c-4.636 4.636-5.724 11.744-2.688 17.554 5.036 9.636 9.23 19.746 12.467 30.05 1.964 6.252 7.758 10.505 14.311 10.505h35.162z" data-original="#000000" class="active-path" data-old_color="#000000" fill="#424856"/><path d="m256 121c-74.439 0-135 60.561-135 135s60.561 135 135 135 135-60.561 135-135-60.561-135-135-135zm-54.016 225.008c4.674-25.795 27.037-45.008 54.016-45.008s49.342 19.213 54.016 45.008c-15.792 9.512-34.275 14.992-54.016 14.992s-38.224-5.48-54.016-14.992zm24.016-105.008c0-16.542 13.458-30 30-30s30 13.458 30 30-13.458 30-30 30-30-13.458-30-30zm109.093 83.983c-4.391-11.232-11.176-21.486-20.063-30.091-4.882-4.728-10.244-8.796-15.966-12.175 10.472-10.807 16.936-25.517 16.936-41.717 0-33.084-26.916-60-60-60s-60 26.916-60 60c0 16.2 6.464 30.91 16.936 41.717-5.722 3.379-11.083 7.448-15.965 12.175-8.887 8.605-15.672 18.859-20.063 30.091-16.125-18.464-25.908-42.601-25.908-68.983 0-57.897 47.103-105 105-105s105 47.103 105 105c0 26.381-9.783 50.519-25.907 68.983z" data-original="#000000" class="active-path" data-old_color="#000000" fill="#424856"/></g> </svg>
