<?xml version="1.0"?>
<svg xmlns="http://www.w3.org/2000/svg" height="512px" viewBox="-91 0 512 512.00041" width="512px"><g><path d="m133.257812 91.34375c-7.425781.902344-13.257812 6.976562-13.257812 14.648438v30.003906c0 3.980468 1.582031 7.792968 4.398438 10.601562l30 30.003906c2.929687 2.929688 6.765624 4.394532 10.605468 4.394532 3.835938 0 7.675782-1.464844 10.605469-4.394532l30-30.003906c2.8125-2.8125 4.394531-6.621094 4.394531-10.601562v-30.003906c0-7.671876-5.832031-13.746094-13.257812-14.648438l54.785156-66.742188c5.304688-6.371093 4.4375-15.835937-1.917969-21.136718-6.371093-5.289063-15.835937-4.425782-21.140625 1.917968l-63.472656 77.171876-63.46875-77.171876c-5.289062-6.34375-14.738281-7.207031-21.140625-1.917968-6.355469 5.300781-7.21875 14.765625-1.917969 21.136718zm0 0" data-original="#000000" class="active-path" data-old_color="#000000" fill="#424856"/><path d="m240.003906 105.996094v30c0 12.011718-4.6875 23.320312-13.183594 31.816406l-13.183593 13.183594h116.367187v-75c0-8.292969-6.710937-15-15-15h-77.765625c1.683594 4.714844 2.765625 9.714844 2.765625 15zm0 0" data-original="#000000" class="active-path" data-old_color="#000000" fill="#424856"/><path d="m103.1875 167.8125c-8.496094-8.496094-13.1875-19.804688-13.1875-31.816406v-30c0-5.285156 1.082031-10.285156 2.765625-15h-77.765625c-8.289062 0-15 6.707031-15 15v75h116.367188zm0 0" data-original="#000000" class="active-path" data-old_color="#000000" fill="#424856"/><path d="m15 512h300.003906c8.292969 0 15-6.707031 15-15v-286.003906h-330.003906v286.003906c0 8.292969 6.710938 15 15 15zm45.777344-177.003906c1.789062-5.332032 6.402344-9.214844 11.953125-10.0625l54.273437-8.304688 24.417969-52.003906c4.953125-10.546875 22.207031-10.546875 27.160156 0l24.417969 52.003906 54.273438 8.304688c5.550781.851562 10.167968 4.730468 11.953124 10.0625 1.789063 5.332031.4375 11.207031-3.484374 15.234375l-39.714844 40.695312 9.40625 57.65625c.921875 5.667969-1.480469 12.367188-6.167969 15.675781-4.765625 3.359376-10.980469 3.609376-15.894531.867188l-48.371094-27.734375-48.367188 27.734375c-5.023437 2.8125-11.191406 2.445312-15.894531-.867188-4.6875-3.308593-7.089843-10.007812-6.167969-15.675781l9.40625-57.65625-39.714843-40.695312c-3.921875-4.027344-5.269531-9.902344-3.484375-15.234375zm0 0" data-original="#000000" class="active-path" data-old_color="#000000" fill="#424856"/><path d="m134.8125 388.289062-5.65625 34.644532 28.597656-15.804688c2.253906-1.246094 4.746094-1.878906 7.25-1.878906s4.996094.632812 7.25 1.878906l28.59375 15.804688-5.652344-34.644532c-.761718-4.703124.746094-9.492187 4.070313-12.890624l24.609375-25.226563-33.324219-5.097656c-4.9375-.746094-9.183593-3.925781-11.308593-8.453125l-14.238282-30.320313-14.238281 30.320313c-2.125 4.527344-6.371094 7.707031-11.308594 8.453125l-33.328125 5.097656 24.609375 25.226563c3.328125 3.398437 4.835938 8.1875 4.074219 12.890624zm0 0" data-original="#000000" class="active-path" data-old_color="#000000" fill="#424856"/></g> </svg>
