<?xml version="1.0"?>
<svg xmlns="http://www.w3.org/2000/svg" height="512px" viewBox="-61 0 511 512" width="512px"><g><path d="m357.535156 416.09375v-207.960938c0-72.707031-48.085937-134.398437-114.125-154.9375v-5.101562c0-26.519531-21.570312-48.09375-48.089844-48.09375-26.519531 0-48.09375 21.574219-48.09375 48.09375v5.101562c-66.039062 20.539063-114.125 82.230469-114.125 154.9375v207.957032h324.433594zm-107.175781-72.195312c0 15.585937-12.632813 28.21875-28.214844 28.21875h-53.648437c-15.585938 0-28.21875-12.632813-28.21875-28.21875 0-15.582032 12.632812-28.21875 28.21875-28.21875h53.648437c15.582031 0 28.214844 12.636718 28.214844 28.21875zm14.414063-70.332032c-21.621094 0-40.476563-6.65625-50.4375-20.839844-4.234376-6.027343-11.039063-9.726562-18.40625-9.726562h-1.222657c-7.367187 0-14.171875 3.699219-18.40625 9.726562-9.960937 14.183594-28.816406 20.839844-50.4375 20.839844-21.867187 0-39.589843-17.726562-39.589843-39.59375 0-17.195312 13.9375-31.132812 31.128906-31.132812h155.828125c17.195312 0 31.132812 13.9375 31.132812 31.132812 0 21.867188-17.722656 39.59375-39.589843 39.59375zm0 0" data-original="#000000" class="active-path" data-old_color="#000000" fill="#FFFFFF"/><path d="m.5 446.09375v50.90625c0 8.285156 6.714844 15 15 15h359.640625c8.28125 0 15-6.714844 15-15v-50.90625zm0 0" data-original="#000000" class="active-path" data-old_color="#000000" fill="#FFFFFF"/></g> </svg>
