<svg xmlns="http://www.w3.org/2000/svg" width="30" height="30" viewBox="0 0 35 23.265">
  <g id="Vehicles" transform="translate(-1.003 -6.048)">
    <g id="Group_2355" data-name="Group 2355" transform="translate(1.003 9.048)">
      <path id="Path_231" data-name="Path 231" d="M33.05,22.32a4.992,4.992,0,0,0-3.638-.422l-.5-1.386a1.528,1.528,0,0,0,.13-1.325l-.327-.884a2.177,2.177,0,0,0,1.273.413h.382a.721.721,0,0,0,.721-.721V15.052a.723.723,0,0,0-.721-.721h-.382a2.174,2.174,0,0,0-2.124,1.674l-.406-1.095a1.439,1.439,0,0,0-.859-.854l-1.59-4.438a.541.541,0,0,0-.47-.352L21.35,9.051a.527.527,0,0,0-.576.5.54.54,0,0,0,.5.576l2.843.192,1.361,3.8c-.03.015-.062.022-.092.04a1.5,1.5,0,0,0-.6,1.825l.4,1.075a8.758,8.758,0,0,0-7.122-.346.276.276,0,0,0-.164.336,2.911,2.911,0,0,1,.127,1.163v1.944l-1.458,0V18.164A1.6,1.6,0,0,0,16.5,17.5h-.007a.691.691,0,0,0-.445-.175H7.639a3.063,3.063,0,0,0-2.159.7,2.565,2.565,0,0,0-.751,1.925.26.26,0,0,0,.263.255h1.4a7.251,7.251,0,0,0-5.367,4.915.568.568,0,0,0-.022.16.542.542,0,0,0,.54.532.55.55,0,0,0,.518-.372,6.126,6.126,0,0,1,8.072-3.917l-.508.962a4.991,4.991,0,0,0-2.2-.271,5.135,5.135,0,0,0-4.556,5.141,5.061,5.061,0,1,0,8.041-4.188l.508-.962A6.152,6.152,0,0,1,13.9,25.814a5.829,5.829,0,0,1,.175,1.437,6,6,0,0,1-.175,1.458h8a.747.747,0,0,0,.685-.459L25.75,20.2a.783.783,0,0,0,.457-.368l.152.411a1.443,1.443,0,0,0,1.352.941,1.46,1.46,0,0,0,.281-.042l.4,1.13a5.291,5.291,0,1,0,7.568,4.126A5.357,5.357,0,0,0,33.05,22.32ZM11.292,27.25A3.362,3.362,0,1,1,7.93,23.888a3.314,3.314,0,0,1,.882.133L8.1,25.364c-.058-.005-.113-.017-.172-.017a1.926,1.926,0,1,0,1.461.7L10.1,24.7A3.342,3.342,0,0,1,11.292,27.25Zm6.753-2.042a.664.664,0,1,1-1.327,0V22.532a.664.664,0,0,1,1.327,0Zm2.618,0a.667.667,0,1,1-1.335,0V22.532a.667.667,0,0,1,1.335,0Zm10.048,5.178a3.352,3.352,0,0,1-1.654-6.275l.5,1.4a1.9,1.9,0,1,0,1.151-.4c-.048,0-.093.011-.14.014l-.5-1.408a3.363,3.363,0,1,1,.645,6.663Z" transform="translate(-1.003 -12.048)" fill="#00e6bf"/>
    </g>
  </g>
</svg>
