<svg xmlns="http://www.w3.org/2000/svg" width="35" height="35" viewBox="0 0 29.01 29.009">
  <g id="Group_2378" data-name="Group 2378" transform="translate(-15.99 -16)">
    <g id="Group_2376" data-name="Group 2376" transform="translate(15.99 16)">
      <path id="Path_299" data-name="Path 299" d="M33.6,30.232a7.749,7.749,0,0,0,3.542-6.678c0-4.165-2.982-7.554-6.648-7.554s-6.648,3.389-6.648,7.554a7.749,7.749,0,0,0,3.542,6.678A14.505,14.505,0,0,0,15.99,44.4a.6.6,0,0,0,.6.6H44.4a.6.6,0,0,0,.6-.6A14.507,14.507,0,0,0,33.6,30.232Zm-8.544-6.678c0-3.5,2.44-6.346,5.439-6.346s5.439,2.847,5.439,6.346S33.494,29.9,30.494,29.9,25.055,27.053,25.055,23.554ZM40.164,43.8V40.778a.6.6,0,1,0-1.209,0V43.8H22.033V40.778a.6.6,0,1,0-1.209,0V43.8H17.212a13.3,13.3,0,0,1,26.564,0Z" transform="translate(-15.99 -16)" fill="#fff"/>
      <path id="Path_300" data-name="Path 300" d="M190.22,306a4.23,4.23,0,1,0,4.23,4.23A4.235,4.235,0,0,0,190.22,306Zm0,7.252a3.022,3.022,0,1,1,3.022-3.022A3.025,3.025,0,0,1,190.22,313.252Z" transform="translate(-175.716 -288.474)" fill="#fff"/>
    </g>
    <g id="Group_2379" data-name="Group 2379" transform="translate(-98.823 -91.813)">
      <path id="Path_302" data-name="Path 302" d="M130.852,128.432l-.388-.388a.137.137,0,0,0-.2,0c-.275.27-.545.54-.814.814l-.814-.814a.137.137,0,0,0-.2,0c-.132.128-.26.26-.392.388a.145.145,0,0,0,0,.2c.27.275.545.545.814.814-.27.275-.545.545-.814.814a.145.145,0,0,0,0,.2c.132.132.26.265.392.392a.145.145,0,0,0,.2,0c.27-.27.54-.545.814-.814.27.27.54.545.814.814a.145.145,0,0,0,.2,0c.128-.128.26-.26.388-.392a.137.137,0,0,0,0-.2l-.814-.814c.275-.27.545-.54.814-.814A.137.137,0,0,0,130.852,128.432Z" transform="translate(0)" fill="#fff" fill-rule="evenodd"/>
    </g>
  </g>
</svg>
