<svg xmlns="http://www.w3.org/2000/svg" width="30" height="30" viewBox="0 0 34.333 25.672">
  <g id="noun_Watermeter_783417" transform="translate(893 -166.073)">
    <path id="Path_311" data-name="Path 311" d="M30.59,17.584a1.6,1.6,0,0,0-1.76,1.366L28.818,20.6H18.075V16.833h2.361c1.682,0,3.04-1.064,3.04-2.386V8.456c0-1.319-1.358-2.383-3.04-2.383H9.9c-1.685,0-3.04,1.064-3.04,2.383v5.991c0,1.322,1.355,2.386,3.04,2.386h1.945V20.6H1.926l-.011-1.509a1.786,1.786,0,0,0-1.97-1.526A1.776,1.776,0,0,0-2,19.113L-1.919,30.2a1.784,1.784,0,0,0,1.97,1.526A1.772,1.772,0,0,0,2,30.183l-.005-.91H28.763l-.009,1.09A1.593,1.593,0,0,0,30.5,31.745a1.6,1.6,0,0,0,1.76-1.366l.076-11.408A1.594,1.594,0,0,0,30.59,17.584ZM9.847,14.349V7.911h10.64v6.438Z" transform="translate(-891 160)" fill="#4bc3f4"/>
  </g>
</svg>
