<svg xmlns="http://www.w3.org/2000/svg" width="17.741" height="40.279" viewBox="0 0 17.741 40.279">
  <g id="Yoga" transform="translate(-69.259 36.974)">
    <path id="Path_244" data-name="Path 244" d="M93.879-34.685c0,1.567-1.373,2.953-2.151,2.953s-2.151-1.386-2.151-2.953a2.053,2.053,0,0,1,2.151-2.289A2.053,2.053,0,0,1,93.879-34.685Z" transform="translate(-11.628)" fill="#01ffc3"/>
    <path id="Path_245" data-name="Path 245" d="M86.838-18.206,83.7-22.752c-.647-.938-3.239-.759-3.563-.759s-2.672-.278-3.3.537l-3.372,4.789a.931.931,0,0,0,.161,1.247.789.789,0,0,0,.737.144c.079.016,2.75-.279,2.75-.279A19.616,19.616,0,0,1,76.8-12.8c-.036.345-.1,1.142-.1,1.147-.031.022-7.024,4.41-7.024,4.41a1.158,1.158,0,0,0-.42,1.115c.01.824.2,1.763,1.226,1.714L79.426-5.1,79.32-.169l-.513,9.974a1.1,1.1,0,0,0,.935,1.175,1.069,1.069,0,0,0,1.1-1.005S82.193.084,82.2.062L83.431-11c0-.028-.01-1.763-.016-1.8a21.081,21.081,0,0,1-.264-4.348l2.527.331a2.03,2.03,0,0,0,.984-.145A.931.931,0,0,0,86.838-18.206Zm-10.475-.845.484-.6c.028.2.054.39.077.576ZM79.476-7.364,77.417-7.4l1.859-.846a.016.016,0,0,1,.01-.005c.067.017.139.038.211.05Zm3.859-11.782q.038-.309.084-.641l.531.674Z" transform="translate(0 -7.679)" fill="#01ffc3"/>
  </g>
</svg>
